{
.appVersion = "3236";
.formatVersion = 3;
DisplayStrings = (
"",
"\"",
z,
a,
r,
v,
k,
R,
V,
"Coldie Gamma VowelsInstructions",
Z,
CQXYNKFONTS,
"
ABCDEFGHIJKLM
NOPQRSTUVWXYZ
abcdefghijklm
nopqrstuvwxyz
1234567890
PUBLIC GOODS
BITCOIN ART
Coldie 3d .com http:////Gamma.io
Chank Fonts
Ordinals WOW
",
E,
Z,
"4",
"0",
d,
a,
q,
B,
"₿",
"€",
o,
H,
"ABCDEFGHIJKLM
NOPQRSTUVWXYZ!
abcdefghijklm
nopqrstuvwxyz? gamma coldie3d 
BITBET tYpeFACE freedom TO transact FONTS ",
"*#///backslash -(){}[]“”‘’\"'@₿€¢$£¥+−×÷=><",
S,
$,
"=",
"|",
" ",
h,
"-",
F
);
date = "2025-01-16 18:28:09 +0000";
familyName = Bitbet;
fontMaster = (
{
id = m01;
metricValues = (
{
over = 16;
pos = 800;
},
{
over = 16;
pos = 700;
},
{
over = 16;
pos = 500;
},
{
over = -16;
},
{
over = -16;
pos = -200;
},
{
}
);
name = Regular;
}
);
glyphs = (
{
glyphname = A;
lastChange = "2025-01-17 21:30:12 +0000";
layers = (
{
anchors = (
{
name = ogonek;
pos = (654,18);
},
{
name = top;
pos = (396,643);
}
);
hints = (
{
horizontal = 1;
place = (0,21);
target = up;
type = BottomGhost;
},
{
horizontal = 1;
place = (502,139);
type = Stem;
},
{
place = (50,162);
type = Stem;
},
{
place = (302,163);
type = Stem;
}
);
layerId = m01;
shapes = (
{
closed = 1;
nodes = (
(720,0,l),
(720,535,ls),
(720,588,o),
(674,640,o),
(618,640,cs),
(530,640,l),
(530,789,l),
(438,789,l),
(438,640,l),
(361,640,l),
(361,789,l),
(269,789,l),
(269,640,l),
(184,640,ls),
(129,640,o),
(80,586,o),
(80,535,cs),
(80,0,l),
(250,0,l),
(250,185,l),
(550,185,l),
(550,0,l)
);
},
{
closed = 1;
nodes = (
(550,329,l),
(250,329,l),
(250,496,l),
(550,496,l)
);
}
);
width = 800;
},
{
anchors = (
{
name = ogonek;
pos = (644,18);
},
{
name = top;
pos = (386,643);
}
);
associatedMasterId = m01;
hints = (
{
horizontal = 1;
place = (0,21);
target = up;
type = BottomGhost;
},
{
horizontal = 1;
place = (502,139);
type = Stem;
},
{
place = (50,162);
type = Stem;
},
{
place = (302,163);
type = Stem;
}
);
layerId = m003;
name = Bold;
shapes = (
{
closed = 1;
nodes = (
(710,0,l),
(710,462,ls),
(710,552,o),
(636,640,o),
(547,640,cs),
(236,640,ls),
(148,640,o),
(70,548,o),
(70,462,cs),
(70,0,l),
(270,0,l),
(270,170,l),
(510,170,l),
(510,0,l)
);
},
{
closed = 1;
nodes = (
(510,330,l),
(270,330,l),
(270,460,l),
(510,460,l)
);
}
);
width = 780;
}
);
metricLeft = N;
metricRight = N;
unicode = 65;
},
{
glyphname = B;
lastChange = "2025-01-17 21:30:12 +0000";
layers = (
{
hints = (
{
horizontal = 1;
place = (0,148);
type = Stem;
},
{
horizontal = 1;
place = (502,139);
type = Stem;
},
{
place = (50,162);
type = Stem;
},
{
place = (316,160);
type = Stem;
}
);
layerId = m01;
shapes = (
{
closed = 1;
nodes = (
(269,0,l),
(269,-148,l),
(361,-148,l),
(361,0,l),
(438,0,l),
(438,-148,l),
(530,-148,l),
(530,0,l),
(622,0,ls),
(679,0,o),
(723,39,o),
(723,94,cs),
(723,241,ls),
(723,274,o),
(689,303,o),
(666,320,c),
(686,334,o),
(720,358,o),
(720,391,cs),
(720,545,ls),
(720,599,o),
(673,641,o),
(617,641,cs),
(530,641,l),
(530,790,l),
(438,790,l),
(438,641,l),
(361,641,l),
(361,790,l),
(269,790,l),
(269,641,l),
(80,641,l),
(80,0,l)
);
},
{
closed = 1;
nodes = (
(249,502,l),
(550,502,l),
(550,393,l),
(249,393,l)
);
},
{
closed = 1;
nodes = (
(252,260,l),
(553,260,l),
(553,148,l),
(252,148,l)
);
}
);
width = 803;
},
{
associatedMasterId = m01;
hints = (
{
horizontal = 1;
place = (0,148);
type = Stem;
},
{
horizontal = 1;
place = (502,139);
type = Stem;
},
{
place = (50,162);
type = Stem;
},
{
place = (316,160);
type = Stem;
}
);
layerId = m003;
name = Bold;
shapes = (
{
closed = 1;
nodes = (
(551,0,ls),
(643,0,o),
(713,66,o),
(713,150,cs),
(713,241,ls),
(713,284,o),
(673,327,o),
(646,340,c),
(670,350,o),
(710,388,o),
(710,431,cs),
(710,488,ls),
(710,570,o),
(635,641,o),
(545,641,cs),
(70,641,l),
(70,0,l)
);
},
{
closed = 1;
nodes = (
(270,481,l),
(510,481,l),
(510,397,l),
(270,397,l)
);
},
{
closed = 1;
nodes = (
(270,257,l),
(513,257,l),
(513,160,l),
(270,160,l)
);
}
);
width = 783;
}
);
metricLeft = N;
metricRight = N;
unicode = 66;
},
{
glyphname = C;
lastChange = "2025-01-17 21:30:12 +0000";
layers = (
{
anchors = (
{
name = bottom;
pos = (407,3);
},
{
name = top;
pos = (391,639);
}
);
hints = (
{
horizontal = 1;
place = (0,144);
type = Stem;
},
{
horizontal = 1;
place = (497,144);
type = Stem;
},
{
place = (50,160);
type = Stem;
},
{
place = (302,159);
type = Stem;
}
);
layerId = m01;
shapes = (
{
closed = 1;
nodes = (
(720,204,l),
(554,204,l),
(554,144,l),
(250,144,l),
(250,497,l),
(554,497,l),
(554,438,l),
(720,438,l),
(720,547,ls),
(720,602,o),
(676,641,o),
(619,641,cs),
(530,641,l),
(530,790,l),
(438,790,l),
(438,641,l),
(361,641,l),
(361,790,l),
(269,790,l),
(269,641,l),
(180,641,ls),
(124,641,o),
(80,602,o),
(80,547,cs),
(80,95,ls),
(80,42,o),
(127,0,o),
(183,0,cs),
(269,0,l),
(269,-148,l),
(361,-148,l),
(361,0,l),
(438,0,l),
(438,-148,l),
(530,-148,l),
(530,0,l),
(619,0,ls),
(676,0,o),
(720,39,o),
(720,94,cs)
);
}
);
width = 800;
},
{
anchors = (
{
name = bottom;
pos = (369,0);
},
{
name = top;
pos = (371,640);
}
);
associatedMasterId = m01;
hints = (
{
horizontal = 1;
place = (0,144);
type = Stem;
},
{
horizontal = 1;
place = (497,144);
type = Stem;
},
{
place = (50,160);
type = Stem;
},
{
place = (302,159);
type = Stem;
}
);
layerId = m003;
name = Bold;
shapes = (
{
closed = 1;
nodes = (
(710,240,l),
(510,240,l),
(510,180,l),
(270,180,l),
(270,461,l),
(510,461,l),
(510,402,l),
(710,402,l),
(710,481,ls),
(710,575,o),
(640,641,o),
(548,641,cs),
(230,641,ls),
(140,641,o),
(70,575,o),
(70,481,cs),
(70,162,ls),
(70,71,o),
(145,0,o),
(235,0,cs),
(548,0,ls),
(640,0,o),
(710,66,o),
(710,160,cs)
);
}
);
width = 780;
}
);
metricLeft = N;
metricRight = N;
unicode = 67;
},
{
glyphname = D;
lastChange = "2025-01-17 21:30:12 +0000";
layers = (
{
anchors = (
{
name = top;
pos = (389,641);
}
);
hints = (
{
horizontal = 1;
place = (0,156);
type = Stem;
},
{
horizontal = 1;
place = (497,144);
type = Stem;
},
{
place = (50,159);
type = Stem;
},
{
place = (313,160);
type = Stem;
}
);
layerId = m01;
shapes = (
{
closed = 1;
nodes = (
(499,497,o),
(550,429,o),
(550,332,cs),
(548,222,o),
(497,144,o),
(383,144,cs),
(249,144,l),
(249,497,l),
(383,497,ls)
);
},
{
closed = 1;
nodes = (
(229,0,l),
(229,-148,l),
(321,-148,l),
(321,0,l),
(398,0,l),
(398,-148,l),
(490,-148,l),
(490,5,l),
(623,32,o),
(720,178,o),
(720,331,cs),
(720,482,o),
(624,610,o),
(490,636,c),
(490,790,l),
(398,790,l),
(398,641,l),
(321,641,l),
(321,790,l),
(229,790,l),
(229,641,l),
(80,641,l),
(80,0,l)
);
}
);
width = 800;
},
{
anchors = (
{
name = top;
pos = (379,641);
}
);
associatedMasterId = m01;
hints = (
{
horizontal = 1;
place = (0,156);
type = Stem;
},
{
horizontal = 1;
place = (497,144);
type = Stem;
},
{
place = (50,159);
type = Stem;
},
{
place = (313,160);
type = Stem;
}
);
layerId = m003;
name = Bold;
shapes = (
{
closed = 1;
nodes = (
(710,478,ls),
(710,570,o),
(635,641,o),
(545,641,cs),
(70,641,l),
(70,0,l),
(553,0,ls),
(646,0,o),
(710,66,o),
(710,160,cs)
);
},
{
closed = 1;
nodes = (
(510,180,l),
(270,180,l),
(270,461,l),
(510,461,l)
);
}
);
width = 780;
}
);
metricLeft = N;
metricRight = N;
unicode = 68;
},
{
glyphname = E;
lastChange = "2025-01-17 21:30:12 +0000";
layers = (
{
anchors = (
{
name = bottom;
pos = (399,0);
},
{
name = ogonek;
pos = (650,22);
},
{
name = top;
pos = (396,642);
}
);
hints = (
{
horizontal = 1;
place = (0,153);
type = Stem;
},
{
horizontal = 1;
place = (254,143);
type = Stem;
},
{
horizontal = 1;
place = (492,149);
type = Stem;
},
{
place = (50,156);
type = Stem;
}
);
layerId = m01;
shapes = (
{
closed = 1;
nodes = (
(269,0,l),
(269,-148,l),
(361,-148,l),
(361,0,l),
(438,0,l),
(438,-148,l),
(530,-148,l),
(530,0,l),
(720,0,l),
(720,144,l),
(260,144,l),
(260,253,l),
(564,253,l),
(564,397,l),
(260,397,l),
(260,496,l),
(720,496,l),
(720,640,l),
(530,640,l),
(530,790,l),
(438,790,l),
(438,640,l),
(361,640,l),
(361,790,l),
(269,790,l),
(269,640,l),
(80,640,l),
(80,0,l)
);
}
);
width = 780;
},
{
anchors = (
{
name = bottom;
pos = (389,0);
},
{
name = ogonek;
pos = (640,22);
},
{
name = top;
pos = (386,642);
}
);
associatedMasterId = m01;
hints = (
{
horizontal = 1;
place = (0,153);
type = Stem;
},
{
horizontal = 1;
place = (254,143);
type = Stem;
},
{
horizontal = 1;
place = (492,149);
type = Stem;
},
{
place = (50,156);
type = Stem;
}
);
layerId = m003;
name = Bold;
shapes = (
{
closed = 1;
nodes = (
(710,0,l),
(710,170,l),
(270,170,l),
(270,247,l),
(534,247,l),
(534,407,l),
(270,407,l),
(270,470,l),
(710,470,l),
(710,640,l),
(70,640,l),
(70,0,l)
);
}
);
width = 770;
}
);
metricLeft = N;
unicode = 69;
},
{
glyphname = F;
lastChange = "2025-01-17 21:30:12 +0000";
layers = (
{
hints = (
{
horizontal = 1;
place = (0,21);
target = up;
type = BottomGhost;
},
{
horizontal = 1;
place = (254,143);
type = Stem;
},
{
horizontal = 1;
place = (492,149);
type = Stem;
},
{
place = (50,158);
type = Stem;
}
);
layerId = m01;
shapes = (
{
closed = 1;
nodes = (
(250,0,l),
(250,253,l),
(564,253,l),
(564,397,l),
(250,397,l),
(250,485,l),
(720,485,l),
(720,641,l),
(530,641,l),
(530,790,l),
(438,790,l),
(438,641,l),
(361,641,l),
(361,790,l),
(269,790,l),
(269,641,l),
(80,641,l),
(80,0,l)
);
}
);
width = 770;
},
{
associatedMasterId = m01;
hints = (
{
horizontal = 1;
place = (0,21);
target = up;
type = BottomGhost;
},
{
horizontal = 1;
place = (254,143);
type = Stem;
},
{
horizontal = 1;
place = (492,149);
type = Stem;
},
{
place = (50,158);
type = Stem;
}
);
layerId = m003;
name = Bold;
shapes = (
{
closed = 1;
nodes = (
(270,0,l),
(270,204,l),
(534,204,l),
(534,364,l),
(270,364,l),
(270,461,l),
(710,461,l),
(710,641,l),
(70,641,l),
(70,0,l)
);
}
);
width = 770;
}
);
metricLeft = N;
unicode = 70;
},
{
glyphname = G;
lastChange = "2025-01-17 21:30:12 +0000";
layers = (
{
anchors = (
{
name = bottom;
pos = (412,1);
}
);
hints = (
{
horizontal = 1;
place = (0,144);
type = Stem;
},
{
horizontal = 1;
place = (498,143);
type = Stem;
},
{
place = (50,160);
type = Stem;
},
{
place = (311,157);
type = Stem;
}
);
layerId = m01;
shapes = (
{
closed = 1;
nodes = (
(269,0,l),
(269,-148,l),
(361,-148,l),
(361,0,l),
(438,0,l),
(438,-148,l),
(530,-148,l),
(530,0,l),
(720,0,l),
(720,398,l),
(407,398,l),
(407,254,l),
(554,254,l),
(554,144,l),
(250,144,l),
(250,497,l),
(720,497,l),
(720,641,l),
(530,641,l),
(530,790,l),
(438,790,l),
(438,641,l),
(361,641,l),
(361,790,l),
(269,790,l),
(269,641,l),
(181,641,ls),
(124,641,o),
(80,602,o),
(80,547,cs),
(80,95,ls),
(80,42,o),
(127,0,o),
(184,0,cs)
);
}
);
width = 800;
},
{
anchors = (
{
name = bottom;
pos = (392,1);
}
);
associatedMasterId = m01;
hints = (
{
horizontal = 1;
place = (0,144);
type = Stem;
},
{
horizontal = 1;
place = (498,143);
type = Stem;
},
{
place = (50,160);
type = Stem;
},
{
place = (311,157);
type = Stem;
}
);
layerId = m003;
name = Bold;
shapes = (
{
closed = 1;
nodes = (
(710,0,l),
(710,354,l),
(510,354,l),
(510,180,l),
(270,180,l),
(270,461,l),
(710,461,l),
(710,641,l),
(232,641,ls),
(140,641,o),
(70,575,o),
(70,481,cs),
(70,162,ls),
(70,71,o),
(145,0,o),
(236,0,cs)
);
},
{
closed = 1;
nodes = (
(710,244,l),
(710,384,l),
(397,384,l),
(397,244,l)
);
}
);
width = 780;
}
);
metricLeft = N;
metricRight = N;
unicode = 71;
},
{
glyphname = H;
lastChange = "2025-01-17 21:30:12 +0000";
layers = (
{
hints = (
{
horizontal = 1;
place = (0,21);
target = up;
type = BottomGhost;
},
{
horizontal = 1;
place = (641,-20);
target = down;
type = TopGhost;
},
{
place = (50,162);
type = Stem;
},
{
place = (333,162);
type = Stem;
}
);
layerId = m01;
shapes = (
{
closed = 1;
nodes = (
(731,0,l),
(731,191,l),
(831,191,l),
(831,283,l),
(731,283,l),
(731,360,l),
(831,360,l),
(831,452,l),
(731,452,l),
(731,640,l),
(561,640,l),
(561,380,l),
(261,380,l),
(261,640,l),
(91,640,l),
(91,452,l),
(-10,452,l),
(-10,360,l),
(91,360,l),
(91,283,l),
(-10,283,l),
(-10,191,l),
(91,191,l),
(91,0,l),
(261,0,l),
(261,236,l),
(561,236,l),
(561,0,l)
);
}
);
width = 821;
},
{
associatedMasterId = m01;
hints = (
{
horizontal = 1;
place = (0,21);
target = up;
type = BottomGhost;
},
{
horizontal = 1;
place = (641,-20);
target = down;
type = TopGhost;
},
{
place = (50,162);
type = Stem;
},
{
place = (333,162);
type = Stem;
}
);
layerId = m003;
name = Bold;
shapes = (
{
closed = 1;
nodes = (
(710,0,l),
(710,640,l),
(510,640,l),
(510,406,l),
(270,406,l),
(270,640,l),
(70,640,l),
(70,0,l),
(270,0,l),
(270,246,l),
(510,246,l),
(510,0,l)
);
}
);
width = 780;
}
);
unicode = 72;
},
{
glyphname = I;
lastChange = "2025-01-17 21:30:12 +0000";
layers = (
{
anchors = (
{
name = ogonek;
pos = (257,19);
},
{
name = top;
pos = (242,641);
}
);
hints = (
{
horizontal = 1;
place = (0,21);
target = up;
type = BottomGhost;
},
{
horizontal = 1;
place = (641,-20);
target = down;
type = TopGhost;
},
{
place = (50,159);
type = Stem;
}
);
layerId = m01;
shapes = (
{
closed = 1;
nodes = (
(160,496,l),
(160,144,l),
(40,144,l),
(40,0,l),
(116,0,l),
(116,-148,l),
(208,-148,l),
(208,0,l),
(285,0,l),
(285,-148,l),
(377,-148,l),
(377,0,l),
(440,0,l),
(440,144,l),
(330,144,l),
(330,496,l),
(440,496,l),
(440,640,l),
(377,640,l),
(377,790,l),
(285,790,l),
(285,641,l),
(208,641,l),
(208,790,l),
(116,790,l),
(116,640,l),
(40,640,l),
(40,496,l)
);
}
);
width = 480;
},
{
anchors = (
{
name = ogonek;
pos = (373,23);
},
{
name = top;
pos = (245,641);
}
);
associatedMasterId = m01;
hints = (
{
horizontal = 1;
place = (0,21);
target = up;
type = BottomGhost;
},
{
horizontal = 1;
place = (641,-20);
target = down;
type = TopGhost;
},
{
place = (50,159);
type = Stem;
}
);
layerId = m003;
name = Bold;
shapes = (
{
closed = 1;
nodes = (
(340,0,l),
(340,641,l),
(140,641,l),
(140,0,l)
);
},
{
closed = 1;
nodes = (
(446,480,l),
(446,640,l),
(35,640,l),
(35,480,l)
);
},
{
closed = 1;
nodes = (
(35,160,l),
(35,0,l),
(446,0,l),
(446,160,l)
);
}
);
width = 481;
}
);
unicode = 73;
},
{
glyphname = J;
lastChange = "2025-01-17 21:30:12 +0000";
layers = (
{
hints = (
{
horizontal = 1;
place = (0,136);
type = Stem;
},
{
horizontal = 1;
place = (641,-20);
target = down;
type = TopGhost;
},
{
place = (200,157);
type = Stem;
}
);
layerId = m01;
shapes = (
{
closed = 1;
nodes = (
(710,640,l),
(540,640,l),
(540,156,l),
(220,156,l),
(220,282,l),
(50,282,l),
(50,94,ls),
(50,39,o),
(90,0,o),
(148,0,cs),
(249,0,l),
(249,-148,l),
(341,-148,l),
(341,0,l),
(418,0,l),
(418,-148,l),
(510,-148,l),
(510,0,l),
(613,0,ls),
(670,0,o),
(710,39,o),
(710,94,cs)
);
}
);
width = 790;
},
{
associatedMasterId = m01;
hints = (
{
horizontal = 1;
place = (0,136);
type = Stem;
},
{
horizontal = 1;
place = (641,-20);
target = down;
type = TopGhost;
},
{
place = (200,157);
type = Stem;
}
);
layerId = m003;
name = Bold;
shapes = (
{
closed = 1;
nodes = (
(720,640,l),
(520,640,l),
(520,180,l),
(260,180,l),
(260,282,l),
(60,282,l),
(60,160,ls),
(60,66,o),
(124,0,o),
(217,0,cs),
(565,0,ls),
(656,0,o),
(720,66,o),
(720,160,cs)
);
}
);
width = 790;
}
);
metricRight = N;
unicode = 74;
},
{
glyphname = K;
lastChange = "2025-01-17 21:30:12 +0000";
layers = (
{
hints = (
{
horizontal = 1;
place = (0,21);
target = up;
type = BottomGhost;
},
{
horizontal = 1;
place = (641,-20);
target = down;
type = TopGhost;
},
{
place = (50,164);
type = Stem;
},
{
place = (312,148);
type = Stem;
}
);
layerId = m01;
shapes = (
{
closed = 1;
nodes = (
(528,391,l),
(767,640,l),
(557,640,l),
(322,391,l),
(270,391,l),
(270,640,l),
(100,640,l),
(100,452,l),
(-10,452,l),
(-10,360,l),
(100,360,l),
(100,283,l),
(-10,283,l),
(-10,191,l),
(100,191,l),
(100,0,l),
(270,0,l),
(270,235,l),
(570,235,l),
(570,0,l),
(740,0,l),
(740,284,ls),
(740,348,o),
(699,384,o),
(641,391,c)
);
}
);
width = 817;
},
{
associatedMasterId = m01;
hints = (
{
horizontal = 1;
place = (0,21);
target = up;
type = BottomGhost;
},
{
horizontal = 1;
place = (641,-20);
target = down;
type = TopGhost;
},
{
place = (50,164);
type = Stem;
},
{
place = (312,148);
type = Stem;
}
);
layerId = m003;
name = Bold;
shapes = (
{
closed = 1;
nodes = (
(533,391,l),
(737,640,l),
(512,640,l),
(312,391,l),
(270,391,l),
(270,640,l),
(70,640,l),
(70,0,l),
(270,0,l),
(270,211,l),
(510,211,l),
(510,0,l),
(710,0,l),
(710,209,ls),
(710,318,o),
(644,379,o),
(552,391,c)
);
}
);
width = 797;
}
);
metricLeft = H;
unicode = 75;
},
{
glyphname = L;
lastChange = "2025-01-17 21:30:12 +0000";
layers = (
{
hints = (
{
horizontal = 1;
place = (0,146);
type = Stem;
},
{
horizontal = 1;
place = (641,-20);
target = down;
type = TopGhost;
},
{
place = (50,156);
type = Stem;
}
);
layerId = m01;
shapes = (
{
closed = 1;
nodes = (
(279,0,l),
(279,-148,l),
(371,-148,l),
(371,0,l),
(448,0,l),
(448,-148,l),
(540,-148,l),
(540,0,l),
(720,0,l),
(720,144,l),
(250,144,l),
(250,641,l),
(80,641,l),
(80,0,l)
);
}
);
width = 760;
},
{
associatedMasterId = m01;
hints = (
{
horizontal = 1;
place = (0,146);
type = Stem;
},
{
horizontal = 1;
place = (641,-20);
target = down;
type = TopGhost;
},
{
place = (50,156);
type = Stem;
}
);
layerId = m003;
name = Bold;
shapes = (
{
closed = 1;
nodes = (
(710,0,l),
(710,180,l),
(270,180,l),
(270,641,l),
(70,641,l),
(70,0,l)
);
}
);
width = 750;
}
);
metricLeft = N;
unicode = 76;
},
{
glyphname = M;
lastChange = "2025-01-17 21:30:12 +0000";
layers = (
{
hints = (
{
horizontal = 1;
place = (0,21);
target = up;
type = BottomGhost;
},
{
horizontal = 1;
place = (641,-20);
target = down;
type = TopGhost;
},
{
place = (50,164);
type = Stem;
},
{
place = (525,165);
type = Stem;
}
);
layerId = m01;
shapes = (
{
closed = 1;
nodes = (
(80,0,l),
(251,0,l),
(251,496,l),
(494,496,l),
(485,0,l),
(656,0,l),
(656,496,l),
(890,496,l),
(890,0,l),
(1060,0,l),
(1060,480,ls),
(1060,574,o),
(996,640,o),
(903,640,cs),
(786,640,l),
(786,790,l),
(694,790,l),
(694,640,l),
(617,640,l),
(617,790,l),
(525,790,l),
(525,640,l),
(448,640,l),
(448,790,l),
(356,790,l),
(356,640,l),
(82,640,l)
);
}
);
width = 1140;
},
{
associatedMasterId = m01;
hints = (
{
horizontal = 1;
place = (0,21);
target = up;
type = BottomGhost;
},
{
horizontal = 1;
place = (641,-20);
target = down;
type = TopGhost;
},
{
place = (50,30);
type = Stem;
},
{
place = (347,-267);
type = Stem;
},
{
horizontal = 1;
origin = (0,0);
target = up;
type = BottomGhost;
},
{
horizontal = 1;
origin = (0,5);
target = down;
type = TopGhost;
},
{
origin = (0,0);
type = Stem;
},
{
origin = (0,1);
type = Stem;
}
);
layerId = m003;
name = Bold;
shapes = (
{
closed = 1;
nodes = (
(70,0,l),
(271,0,l),
(271,480,l),
(470,480,l),
(572,640,l),
(72,640,l)
);
},
{
closed = 1;
nodes = (
(470,0,l),
(670,0,l),
(670,480,l),
(870,480,l),
(870,0,l),
(1070,0,l),
(1070,480,ls),
(1070,574,o),
(1006,640,o),
(913,640,cs),
(472,640,l)
);
}
);
width = 1140;
}
);
metricLeft = N;
metricRight = N;
unicode = 77;
},
{
glyphname = N;
lastChange = "2025-01-17 21:30:12 +0000";
layers = (
{
anchors = (
{
name = bottom;
pos = (399,0);
},
{
name = top;
pos = (396,642);
}
);
hints = (
{
horizontal = 1;
place = (0,21);
target = up;
type = BottomGhost;
},
{
horizontal = 1;
place = (641,-20);
target = down;
type = TopGhost;
},
{
place = (50,150);
type = Stem;
},
{
place = (347,149);
type = Stem;
}
);
layerId = m01;
shapes = (
{
closed = 1;
nodes = (
(80,0,l),
(251,0,l),
(251,496,l),
(550,496,l),
(550,0,l),
(720,0,l),
(720,480,ls),
(720,574,o),
(656,640,o),
(563,640,cs),
(522,640,l),
(522,790,l),
(430,790,l),
(430,640,l),
(353,640,l),
(353,790,l),
(261,790,l),
(261,640,l),
(82,640,l)
);
}
);
width = 800;
},
{
anchors = (
{
name = bottom;
pos = (389,0);
},
{
name = top;
pos = (386,642);
}
);
associatedMasterId = m01;
hints = (
{
horizontal = 1;
place = (0,21);
target = up;
type = BottomGhost;
},
{
horizontal = 1;
place = (641,-20);
target = down;
type = TopGhost;
},
{
place = (50,150);
type = Stem;
},
{
place = (347,149);
type = Stem;
}
);
layerId = m003;
name = Bold;
shapes = (
{
closed = 1;
nodes = (
(70,0,l),
(271,0,l),
(271,480,l),
(530,480,l),
(530,0,l),
(730,0,l),
(730,480,ls),
(730,574,o),
(666,640,o),
(573,640,cs),
(72,640,l)
);
}
);
width = 800;
}
);
unicode = 78;
},
{
glyphname = O;
lastChange = "2025-01-17 21:30:12 +0000";
layers = (
{
anchors = (
{
name = bottom;
pos = (399,0);
},
{
name = top;
pos = (396,642);
}
);
hints = (
{
horizontal = 1;
place = (0,156);
type = Stem;
},
{
horizontal = 1;
place = (497,144);
type = Stem;
},
{
place = (50,160);
type = Stem;
},
{
place = (312,160);
type = Stem;
}
);
layerId = m01;
shapes = (
{
closed = 1;
nodes = (
(720,544,ls),
(720,598,o),
(673,640,o),
(617,640,cs),
(530,640,l),
(530,790,l),
(438,790,l),
(438,640,l),
(361,640,l),
(361,790,l),
(269,790,l),
(269,640,l),
(183,640,ls),
(127,640,o),
(80,598,o),
(80,544,cs),
(80,94,ls),
(80,39,o),
(120,0,o),
(178,0,cs),
(269,0,l),
(269,-148,l),
(361,-148,l),
(361,0,l),
(438,0,l),
(438,-148,l),
(530,-148,l),
(530,0,l),
(622,0,ls),
(680,0,o),
(720,39,o),
(720,94,cs)
);
},
{
closed = 1;
nodes = (
(550,144,l),
(250,144,l),
(250,496,l),
(550,496,l)
);
}
);
width = 800;
},
{
anchors = (
{
name = bottom;
pos = (379,0);
},
{
name = top;
pos = (376,642);
}
);
associatedMasterId = m01;
hints = (
{
horizontal = 1;
origin = (0,11);
type = Stem;
},
{
horizontal = 1;
origin = (1,2);
type = Stem;
},
{
origin = (0,8);
type = Stem;
},
{
origin = (1,1);
type = Stem;
}
);
layerId = m003;
name = Bold;
shapes = (
{
closed = 1;
nodes = (
(710,477,ls),
(710,569,o),
(635,640,o),
(545,640,cs),
(235,640,ls),
(145,640,o),
(70,569,o),
(70,477,cs),
(70,160,ls),
(70,66,o),
(134,0,o),
(227,0,cs),
(553,0,ls),
(646,0,o),
(710,66,o),
(710,160,cs)
);
},
{
closed = 1;
nodes = (
(510,160,l),
(270,160,l),
(270,480,l),
(510,480,l)
);
}
);
width = 780;
}
);
metricLeft = N;
metricRight = N;
unicode = 79;
},
{
glyphname = P;
lastChange = "2025-01-17 21:30:12 +0000";
layers = (
{
hints = (
{
horizontal = 1;
place = (0,21);
target = up;
type = BottomGhost;
},
{
horizontal = 1;
place = (200,143);
type = Stem;
},
{
horizontal = 1;
place = (497,144);
type = Stem;
},
{
place = (50,159);
type = Stem;
},
{
place = (313,160);
type = Stem;
}
);
layerId = m01;
shapes = (
{
closed = 1;
nodes = (
(720,544,ls),
(720,598,o),
(673,640,o),
(617,640,cs),
(530,640,l),
(530,790,l),
(438,790,l),
(438,640,l),
(361,640,l),
(361,790,l),
(269,790,l),
(269,640,l),
(80,640,l),
(80,0,l),
(250,0,l),
(250,180,l),
(621,180,ls),
(667,180,o),
(720,213,o),
(720,273,cs)
);
},
{
closed = 1;
nodes = (
(550,324,l),
(250,324,l),
(250,496,l),
(550,496,l)
);
}
);
width = 780;
},
{
associatedMasterId = m01;
hints = (
{
horizontal = 1;
place = (0,21);
target = up;
type = BottomGhost;
},
{
horizontal = 1;
place = (200,143);
type = Stem;
},
{
horizontal = 1;
place = (497,144);
type = Stem;
},
{
place = (50,159);
type = Stem;
},
{
place = (313,160);
type = Stem;
}
);
layerId = m003;
name = Bold;
shapes = (
{
closed = 1;
nodes = (
(710,477,ls),
(710,569,o),
(635,640,o),
(545,640,cs),
(70,640,l),
(70,0,l),
(270,0,l),
(270,170,l),
(552,170,ls),
(625,170,o),
(710,226,o),
(710,328,cs)
);
},
{
closed = 1;
nodes = (
(510,330,l),
(270,330,l),
(270,480,l),
(510,480,l)
);
}
);
width = 760;
}
);
metricLeft = N;
metricRight = "=N-20";
unicode = 80;
},
{
glyphname = Q;
lastChange = "2025-01-17 21:30:12 +0000";
layers = (
{
hints = (
{
horizontal = 1;
place = (-126,21);
target = up;
type = BottomGhost;
},
{
horizontal = 1;
place = (0,21);
target = up;
type = BottomGhost;
},
{
horizontal = 1;
place = (501,140);
type = Stem;
},
{
place = (50,160);
type = Stem;
},
{
place = (312,160);
type = Stem;
}
);
layerId = m01;
shapes = (
{
closed = 1;
nodes = (
(343,0,l),
(343,-186,l),
(499,-186,l),
(499,0,l),
(643,0,ls),
(701,0,o),
(741,39,o),
(741,94,cs),
(741,191,l),
(851,191,l),
(851,283,l),
(741,283,l),
(741,360,l),
(851,360,l),
(851,452,l),
(741,452,l),
(741,544,ls),
(741,598,o),
(694,640,o),
(638,640,cs),
(204,640,ls),
(148,640,o),
(101,598,o),
(101,544,cs),
(101,452,l),
(-10,452,l),
(-10,360,l),
(101,360,l),
(101,283,l),
(-10,283,l),
(-10,191,l),
(101,191,l),
(101,94,ls),
(101,39,o),
(141,0,o),
(199,0,cs)
);
},
{
closed = 1;
nodes = (
(271,496,l),
(571,496,l),
(571,144,l),
(271,144,l)
);
}
);
width = 841;
},
{
associatedMasterId = m01;
hints = (
{
horizontal = 1;
place = (-126,21);
target = up;
type = BottomGhost;
},
{
horizontal = 1;
place = (0,21);
target = up;
type = BottomGhost;
},
{
horizontal = 1;
place = (501,140);
type = Stem;
},
{
place = (50,160);
type = Stem;
},
{
place = (312,160);
type = Stem;
}
);
layerId = m003;
name = Bold;
shapes = (
{
closed = 1;
nodes = (
(553,0,ls),
(646,0,o),
(710,66,o),
(710,160,cs),
(710,477,ls),
(710,569,o),
(635,640,o),
(545,640,cs),
(235,640,ls),
(145,640,o),
(70,569,o),
(70,477,cs),
(70,160,ls),
(70,66,o),
(134,0,o),
(227,0,cs)
);
},
{
closed = 1;
nodes = (
(270,480,l),
(510,480,l),
(510,160,l),
(270,160,l)
);
},
{
closed = 1;
nodes = (
(470,-156,l),
(470,31,l),
(290,31,l),
(290,-156,l)
);
}
);
width = 780;
}
);
metricLeft = H;
metricRight = H;
unicode = 81;
},
{
glyphname = R;
lastChange = "2025-01-17 21:30:12 +0000";
layers = (
{
anchors = (
{
name = bottom;
pos = (399,0);
},
{
name = top;
pos = (396,642);
}
);
hints = (
{
horizontal = 1;
place = (0,21);
target = up;
type = BottomGhost;
},
{
horizontal = 1;
place = (501,140);
type = Stem;
},
{
place = (50,162);
type = Stem;
},
{
place = (316,160);
type = Stem;
}
);
layerId = m01;
shapes = (
{
closed = 1;
nodes = (
(720,544,ls),
(720,598,o),
(673,640,o),
(617,640,cs),
(528,640,l),
(528,790,l),
(436,790,l),
(436,640,l),
(359,640,l),
(359,790,l),
(267,790,l),
(267,640,l),
(80,640,l),
(80,0,l),
(250,0,l),
(250,180,l),
(350,180,l),
(520,0,l),
(730,0,l),
(557,180,l),
(621,180,ls),
(667,180,o),
(720,213,o),
(720,273,cs)
);
},
{
closed = 1;
nodes = (
(550,324,l),
(250,324,l),
(250,496,l),
(550,496,l)
);
}
);
width = 800;
},
{
anchors = (
{
name = bottom;
pos = (389,0);
},
{
name = top;
pos = (386,642);
}
);
associatedMasterId = m01;
hints = (
{
horizontal = 1;
place = (0,21);
target = up;
type = BottomGhost;
},
{
horizontal = 1;
place = (501,140);
type = Stem;
},
{
place = (50,162);
type = Stem;
},
{
place = (316,160);
type = Stem;
}
);
layerId = m003;
name = Bold;
shapes = (
{
closed = 1;
nodes = (
(710,0,l),
(710,152,ls),
(710,214,o),
(671,267,o),
(630,291,c),
(675,309,o),
(710,361,o),
(710,411,cs),
(710,468,ls),
(710,558,o),
(630,640,o),
(540,640,cs),
(70,640,l),
(70,0,l),
(270,0,l),
(270,180,l),
(510,180,l),
(510,0,l)
);
},
{
closed = 1;
nodes = (
(510,340,l),
(270,340,l),
(270,480,l),
(510,480,l)
);
}
);
width = 780;
}
);
metricLeft = N;
metricRight = N;
unicode = 82;
},
{
glyphname = S;
lastChange = "2025-01-17 21:30:12 +0000";
layers = (
{
anchors = (
{
name = bottom;
pos = (399,0);
},
{
name = top;
pos = (396,640);
}
);
hints = (
{
horizontal = 1;
place = (0,140);
type = Stem;
},
{
horizontal = 1;
place = (253,140);
type = Stem;
},
{
horizontal = 1;
place = (500,141);
type = Stem;
},
{
place = (50,162);
type = Stem;
},
{
place = (303,157);
type = Stem;
},
{
horizontal = 1;
place = (466,175);
type = Stem;
},
{
horizontal = 1;
place = (0,177);
type = Stem;
}
);
layerId = m01;
shapes = (
{
closed = 1;
nodes = (
(720,302,ls),
(720,356,o),
(676,395,o),
(619,395,cs),
(250,395,l),
(250,497,l),
(700,497,l),
(700,640,l),
(530,640,l),
(530,790,l),
(438,790,l),
(438,640,l),
(361,640,l),
(361,790,l),
(269,790,l),
(269,640,l),
(184,640,ls),
(128,640,o),
(80,606,o),
(80,546,cs),
(80,336,ls),
(80,291,o),
(128,251,o),
(184,251,cs),
(552,251,l),
(552,142,l),
(100,142,l),
(100,0,l),
(269,0,l),
(269,-148,l),
(361,-148,l),
(361,0,l),
(438,0,l),
(438,-148,l),
(530,-148,l),
(530,0,l),
(616,0,ls),
(673,0,o),
(720,42,o),
(720,95,cs)
);
}
);
width = 800;
},
{
anchors = (
{
name = bottom;
pos = (389,0);
},
{
name = top;
pos = (386,640);
}
);
associatedMasterId = m01;
hints = (
{
horizontal = 1;
place = (0,140);
type = Stem;
},
{
horizontal = 1;
place = (253,140);
type = Stem;
},
{
horizontal = 1;
place = (500,141);
type = Stem;
},
{
place = (50,162);
type = Stem;
},
{
place = (303,157);
type = Stem;
},
{
horizontal = 1;
place = (466,175);
type = Stem;
},
{
horizontal = 1;
place = (0,177);
type = Stem;
}
);
layerId = m003;
name = Bold;
shapes = (
{
closed = 1;
nodes = (
(710,245,ls),
(710,337,o),
(640,403,o),
(548,403,cs),
(270,403,l),
(270,482,l),
(680,482,l),
(680,640,l),
(236,640,ls),
(147,640,o),
(70,582,o),
(70,480,cs),
(70,388,ls),
(70,311,o),
(147,243,o),
(236,243,cs),
(510,243,l),
(510,158,l),
(100,158,l),
(100,0,l),
(544,0,ls),
(635,0,o),
(710,71,o),
(710,162,cs)
);
}
);
width = 780;
}
);
metricLeft = N;
metricRight = N;
unicode = 83;
},
{
glyphname = T;
lastChange = "2025-01-17 21:30:12 +0000";
layers = (
{
anchors = (
{
name = top;
pos = (370,641);
}
);
hints = (
{
horizontal = 1;
place = (0,21);
target = up;
type = BottomGhost;
},
{
horizontal = 1;
place = (494,147);
type = Stem;
},
{
place = (165,160);
type = Stem;
}
);
layerId = m01;
shapes = (
{
closed = 1;
nodes = (
(680,493,l),
(680,640,l),
(500,640,l),
(500,790,l),
(408,790,l),
(408,640,l),
(331,640,l),
(331,790,l),
(239,790,l),
(239,640,l),
(40,640,l),
(40,493,l),
(275,493,l),
(275,0,l),
(445,0,l),
(445,493,l)
);
}
);
width = 730;
},
{
anchors = (
{
name = top;
pos = (363,644);
}
);
associatedMasterId = m01;
hints = (
{
horizontal = 1;
place = (0,21);
target = up;
type = BottomGhost;
},
{
horizontal = 1;
place = (494,147);
type = Stem;
},
{
place = (165,160);
type = Stem;
}
);
layerId = m003;
name = Bold;
shapes = (
{
closed = 1;
nodes = (
(680,460,l),
(680,640,l),
(40,640,l),
(40,460,l),
(260,460,l),
(260,0,l),
(460,0,l),
(460,460,l)
);
}
);
width = 730;
}
);
unicode = 84;
},
{
glyphname = U;
lastChange = "2025-01-17 21:30:12 +0000";
layers = (
{
anchors = (
{
name = bottom;
pos = (410,0);
},
{
name = ogonek;
pos = (653,30);
},
{
name = top;
pos = (407,642);
}
);
hints = (
{
horizontal = 1;
place = (0,156);
type = Stem;
},
{
horizontal = 1;
place = (641,-20);
target = down;
type = TopGhost;
},
{
place = (50,160);
type = Stem;
},
{
place = (331,159);
type = Stem;
}
);
layerId = m01;
shapes = (
{
closed = 1;
nodes = (
(740,640,l),
(570,640,l),
(570,144,l),
(250,144,l),
(250,640,l),
(80,640,l),
(80,94,ls),
(80,39,o),
(120,0,o),
(178,0,cs),
(279,0,l),
(279,-148,l),
(371,-148,l),
(371,0,l),
(448,0,l),
(448,-148,l),
(540,-148,l),
(540,0,l),
(643,0,ls),
(700,0,o),
(740,39,o),
(740,94,cs)
);
}
);
width = 820;
},
{
anchors = (
{
name = bottom;
pos = (399,0);
},
{
name = ogonek;
pos = (614,26);
},
{
name = top;
pos = (396,642);
}
);
associatedMasterId = m01;
hints = (
{
horizontal = 1;
place = (0,156);
type = Stem;
},
{
horizontal = 1;
place = (641,-20);
target = down;
type = TopGhost;
},
{
place = (50,160);
type = Stem;
},
{
place = (331,159);
type = Stem;
}
);
layerId = m003;
name = Bold;
shapes = (
{
closed = 1;
nodes = (
(730,640,l),
(530,640,l),
(530,160,l),
(270,160,l),
(270,640,l),
(70,640,l),
(70,160,ls),
(70,66,o),
(134,0,o),
(227,0,cs),
(575,0,ls),
(666,0,o),
(730,66,o),
(730,160,cs)
);
}
);
width = 800;
}
);
metricLeft = N;
metricRight = N;
unicode = 85;
},
{
glyphname = V;
lastChange = "2025-01-17 21:30:12 +0000";
layers = (
{
hints = (
{
horizontal = 1;
place = (0,21);
target = up;
type = BottomGhost;
},
{
horizontal = 1;
place = (641,-20);
target = down;
type = TopGhost;
}
);
layerId = m01;
shapes = (
{
closed = 1;
nodes = (
(601,360,l),
(728,360,l),
(728,452,l),
(637,452,l),
(674,548,l),
(728,548,l),
(728,640,l),
(543,640,l),
(357,166,l),
(176,640,l),
(-9,640,l),
(-9,548,l),
(45,548,l),
(81,452,l),
(-9,452,l),
(-9,360,l),
(115,360,l),
(251,0,l),
(460,0,l)
);
}
);
width = 720;
},
{
associatedMasterId = m01;
hints = (
{
horizontal = 1;
place = (0,21);
target = up;
type = BottomGhost;
},
{
horizontal = 1;
place = (641,-20);
target = down;
type = TopGhost;
}
);
layerId = m003;
name = Bold;
shapes = (
{
closed = 1;
nodes = (
(715,640,l),
(518,640,l),
(348,199,l),
(365,199,l),
(201,640,l),
(5,640,l),
(246,0,l),
(465,0,l)
);
}
);
width = 720;
}
);
unicode = 86;
},
{
glyphname = W;
lastChange = "2025-01-17 21:30:12 +0000";
layers = (
{
hints = (
{
horizontal = 1;
place = (0,21);
target = up;
type = BottomGhost;
},
{
horizontal = 1;
place = (641,-20);
target = down;
type = TopGhost;
}
);
layerId = m01;
shapes = (
{
closed = 1;
nodes = (
(524,317,l),
(625,0,l),
(820,0,l),
(944,360,l),
(1080,360,l),
(1080,452,l),
(975,452,l),
(1008,548,l),
(1080,548,l),
(1080,640,l),
(863,640,l),
(726,205,l),
(594,641,l),
(593,640,l),
(461,640,l),
(324,207,l),
(191,640,l),
(-20,640,l),
(-20,548,l),
(50,548,l),
(82,452,l),
(-20,452,l),
(-20,360,l),
(112,360,l),
(231,0,l),
(418,0,l)
);
}
);
width = 1060;
},
{
associatedMasterId = m01;
hints = (
{
horizontal = 1;
place = (0,21);
target = up;
type = BottomGhost;
},
{
horizontal = 1;
place = (641,-20);
target = down;
type = TopGhost;
}
);
layerId = m003;
name = Bold;
shapes = (
{
closed = 1;
nodes = (
(573,503,l),
(602,641,l),
(428,640,l),
(290,198,l),
(344,198,l),
(211,640,l),
(5,640,l),
(216,0,l),
(405,0,l)
);
},
{
closed = 1;
nodes = (
(1025,640,l),
(828,640,l),
(690,198,l),
(733,198,l),
(602,641,l),
(438,525,l),
(606,0,l),
(805,0,l)
);
}
);
width = 1030;
}
);
unicode = 87;
},
{
glyphname = X;
lastChange = "2025-01-17 21:30:12 +0000";
layers = (
{
hints = (
{
horizontal = 1;
place = (0,21);
target = up;
type = BottomGhost;
},
{
horizontal = 1;
place = (641,-20);
target = down;
type = TopGhost;
}
);
layerId = m01;
shapes = (
{
closed = 1;
nodes = (
(680,0,l),
(542,191,l),
(718,191,l),
(718,283,l),
(476,283,l),
(450,320,l),
(478,360,l),
(718,360,l),
(718,452,l),
(545,452,l),
(680,640,l),
(491,640,l),
(355,451,l),
(219,640,l),
(30,640,l),
(165,452,l),
(1,452,l),
(1,360,l),
(232,360,l),
(261,320,l),
(234,283,l),
(1,283,l),
(1,191,l),
(168,191,l),
(30,0,l),
(219,0,l),
(355,189,l),
(491,0,l)
);
}
);
width = 710;
},
{
associatedMasterId = m01;
hints = (
{
horizontal = 1;
place = (0,21);
target = up;
type = BottomGhost;
},
{
horizontal = 1;
place = (641,-20);
target = down;
type = TopGhost;
}
);
layerId = m003;
name = Bold;
shapes = (
{
closed = 1;
nodes = (
(700,0,l),
(246,640,l),
(30,640,l),
(484,0,l)
);
},
{
closed = 1;
nodes = (
(700,640,l),
(484,640,l),
(30,0,l),
(246,0,l)
);
}
);
width = 730;
}
);
unicode = 88;
},
{
glyphname = Y;
lastChange = "2025-01-17 21:30:12 +0000";
layers = (
{
anchors = (
{
name = top;
pos = (423,641);
}
);
hints = (
{
horizontal = 1;
place = (0,21);
target = up;
type = BottomGhost;
},
{
horizontal = 1;
place = (641,-20);
target = down;
type = TopGhost;
},
{
place = (40,157);
type = Stem;
},
{
place = (292,159);
type = Stem;
},
{
place = (167,153);
type = Stem;
}
);
layerId = m01;
shapes = (
{
closed = 1;
nodes = (
(509,0,l),
(509,216,l),
(634,216,ls),
(688,216,o),
(731,255,o),
(731,309,cs),
(731,360,l),
(841,360,l),
(841,452,l),
(731,452,l),
(731,548,l),
(841,548,l),
(841,640,l),
(561,640,l),
(561,360,l),
(280,360,l),
(280,640,l),
(0,640,l),
(0,548,l),
(110,548,l),
(110,452,l),
(0,452,l),
(0,360,l),
(110,360,l),
(110,309,ls),
(110,255,o),
(153,216,o),
(207,216,cs),
(339,216,l),
(339,0,l)
);
}
);
width = 841;
},
{
anchors = (
{
name = top;
pos = (370,641);
}
);
associatedMasterId = m01;
hints = (
{
horizontal = 1;
place = (0,21);
target = up;
type = BottomGhost;
},
{
horizontal = 1;
place = (641,-20);
target = down;
type = TopGhost;
},
{
place = (40,157);
type = Stem;
},
{
place = (292,159);
type = Stem;
},
{
place = (167,153);
type = Stem;
}
);
layerId = m003;
name = Bold;
shapes = (
{
closed = 1;
nodes = (
(484,0,l),
(484,206,l),
(546,206,ls),
(632,206,o),
(701,272,o),
(701,364,cs),
(701,640,l),
(501,640,l),
(501,366,l),
(260,366,l),
(260,640,l),
(60,640,l),
(60,364,ls),
(60,272,o),
(129,206,o),
(215,206,cs),
(284,206,l),
(284,0,l)
);
}
);
width = 761;
}
);
metricLeft = H;
metricRight = H;
unicode = 89;
},
{
glyphname = Z;
lastChange = "2025-01-17 21:30:12 +0000";
layers = (
{
anchors = (
{
name = bottom;
pos = (347,0);
},
{
name = top;
pos = (359,641);
}
);
hints = (
{
horizontal = 1;
place = (0,147);
type = Stem;
},
{
horizontal = 1;
place = (492,149);
type = Stem;
}
);
layerId = m01;
shapes = (
{
closed = 1;
nodes = (
(219,0,l),
(219,-148,l),
(311,-148,l),
(311,0,l),
(388,0,l),
(388,-148,l),
(480,-148,l),
(480,0,l),
(680,0,l),
(680,144,l),
(310,144,l),
(680,545,l),
(680,640,l),
(480,640,l),
(480,790,l),
(388,790,l),
(388,640,l),
(311,640,l),
(311,790,l),
(219,790,l),
(219,640,l),
(40,640,l),
(40,496,l),
(417,496,l),
(40,95,l),
(40,0,l)
);
}
);
width = 720;
},
{
anchors = (
{
name = bottom;
pos = (373,2);
},
{
name = top;
pos = (380,641);
}
);
associatedMasterId = m01;
hints = (
{
horizontal = 1;
place = (0,147);
type = Stem;
},
{
horizontal = 1;
place = (492,149);
type = Stem;
}
);
layerId = m003;
name = Bold;
shapes = (
{
closed = 1;
nodes = (
(700,0,l),
(700,180,l),
(383,180,l),
(700,545,l),
(700,640,l),
(60,640,l),
(60,461,l),
(384,461,l),
(60,95,l),
(60,0,l)
);
}
);
width = 760;
}
);
unicode = 90;
},
{
glyphname = a;
lastChange = "2025-01-17 21:30:12 +0000";
layers = (
{
anchors = (
{
name = ogonek;
pos = (664,18);
},
{
name = top;
pos = (406,643);
}
);
layerId = m01;
shapes = (
{
closed = 1;
nodes = (
(730,0,l),
(730,191,l),
(831,191,l),
(831,283,l),
(730,283,l),
(730,360,l),
(831,360,l),
(831,452,l),
(730,452,l),
(730,535,ls),
(730,588,o),
(684,640,o),
(628,640,cs),
(194,640,ls),
(139,640,o),
(90,586,o),
(90,535,cs),
(90,452,l),
(-10,452,l),
(-10,360,l),
(90,360,l),
(90,283,l),
(-10,283,l),
(-10,191,l),
(90,191,l),
(90,0,l),
(260,0,l),
(260,185,l),
(560,185,l),
(560,0,l)
);
},
{
closed = 1;
nodes = (
(560,329,l),
(260,329,l),
(260,496,l),
(560,496,l)
);
}
);
width = 821;
},
{
anchors = (
{
name = ogonek;
pos = (644,18);
},
{
name = top;
pos = (386,643);
}
);
associatedMasterId = m01;
hints = (
{
horizontal = 1;
place = (0,21);
target = up;
type = BottomGhost;
},
{
horizontal = 1;
place = (502,139);
type = Stem;
},
{
place = (50,162);
type = Stem;
},
{
place = (302,163);
type = Stem;
}
);
layerId = m003;
name = Bold;
shapes = (
{
closed = 1;
nodes = (
(710,0,l),
(710,462,ls),
(710,552,o),
(636,640,o),
(547,640,cs),
(236,640,ls),
(148,640,o),
(70,548,o),
(70,462,cs),
(70,0,l),
(270,0,l),
(270,170,l),
(510,170,l),
(510,0,l)
);
},
{
closed = 1;
nodes = (
(510,330,l),
(270,330,l),
(270,460,l),
(510,460,l)
);
}
);
width = 780;
}
);
unicode = 97;
},
{
glyphname = b;
lastChange = "2025-01-17 21:30:12 +0000";
layers = (
{
hints = (
{
horizontal = 1;
place = (0,148);
type = Stem;
},
{
horizontal = 1;
place = (502,139);
type = Stem;
},
{
place = (50,162);
type = Stem;
},
{
place = (316,160);
type = Stem;
}
);
layerId = m01;
shapes = (
{
closed = 1;
nodes = (
(632,0,ls),
(689,0,o),
(733,39,o),
(733,94,cs),
(733,191,l),
(831,191,l),
(831,283,l),
(716,283,l),
(704,298,o),
(688,311,o),
(676,320,c),
(689,329,o),
(708,343,o),
(720,360,c),
(831,360,l),
(831,452,l),
(730,452,l),
(730,545,ls),
(730,599,o),
(683,641,o),
(627,641,cs),
(90,641,l),
(90,452,l),
(-10,452,l),
(-10,360,l),
(90,360,l),
(90,283,l),
(-10,283,l),
(-10,191,l),
(90,191,l),
(90,0,l)
);
},
{
closed = 1;
nodes = (
(259,502,l),
(560,502,l),
(560,393,l),
(259,393,l)
);
},
{
closed = 1;
nodes = (
(262,260,l),
(563,260,l),
(563,148,l),
(262,148,l)
);
}
);
width = 821;
},
{
associatedMasterId = m01;
hints = (
{
horizontal = 1;
place = (0,148);
type = Stem;
},
{
horizontal = 1;
place = (502,139);
type = Stem;
},
{
place = (50,162);
type = Stem;
},
{
place = (316,160);
type = Stem;
}
);
layerId = m003;
name = Bold;
shapes = (
{
closed = 1;
nodes = (
(551,0,ls),
(643,0,o),
(713,66,o),
(713,150,cs),
(713,241,ls),
(713,284,o),
(673,327,o),
(646,340,c),
(670,350,o),
(710,388,o),
(710,431,cs),
(710,488,ls),
(710,570,o),
(635,641,o),
(545,641,cs),
(70,641,l),
(70,0,l)
);
},
{
closed = 1;
nodes = (
(270,481,l),
(510,481,l),
(510,397,l),
(270,397,l)
);
},
{
closed = 1;
nodes = (
(270,257,l),
(513,257,l),
(513,160,l),
(270,160,l)
);
}
);
width = 783;
}
);
metricLeft = a;
metricRight = a;
unicode = 98;
},
{
glyphname = c;
lastChange = "2025-01-17 21:30:12 +0000";
layers = (
{
anchors = (
{
name = bottom;
pos = (417,3);
},
{
name = top;
pos = (401,639);
}
);
hints = (
{
horizontal = 1;
place = (0,144);
type = Stem;
},
{
horizontal = 1;
place = (497,144);
type = Stem;
},
{
place = (50,160);
type = Stem;
},
{
place = (302,159);
type = Stem;
}
);
layerId = m01;
shapes = (
{
closed = 1;
nodes = (
(730,204,l),
(564,204,l),
(564,144,l),
(260,144,l),
(260,497,l),
(564,497,l),
(564,438,l),
(730,438,l),
(730,547,ls),
(730,602,o),
(686,641,o),
(629,641,cs),
(190,641,ls),
(134,641,o),
(90,602,o),
(90,547,cs),
(90,452,l),
(-10,452,l),
(-10,360,l),
(90,360,l),
(90,283,l),
(-10,283,l),
(-10,191,l),
(90,191,l),
(90,95,ls),
(90,42,o),
(137,0,o),
(193,0,cs),
(629,0,ls),
(686,0,o),
(730,39,o),
(730,94,cs)
);
}
);
width = 810;
},
{
anchors = (
{
name = bottom;
pos = (369,0);
},
{
name = top;
pos = (371,640);
}
);
associatedMasterId = m01;
hints = (
{
horizontal = 1;
place = (0,144);
type = Stem;
},
{
horizontal = 1;
place = (497,144);
type = Stem;
},
{
place = (50,160);
type = Stem;
},
{
place = (302,159);
type = Stem;
}
);
layerId = m003;
name = Bold;
shapes = (
{
closed = 1;
nodes = (
(710,240,l),
(510,240,l),
(510,180,l),
(270,180,l),
(270,461,l),
(510,461,l),
(510,402,l),
(710,402,l),
(710,481,ls),
(710,575,o),
(640,641,o),
(548,641,cs),
(230,641,ls),
(140,641,o),
(70,575,o),
(70,481,cs),
(70,162,ls),
(70,71,o),
(145,0,o),
(235,0,cs),
(548,0,ls),
(640,0,o),
(710,66,o),
(710,160,cs)
);
}
);
width = 780;
}
);
metricLeft = a;
metricRight = N;
unicode = 99;
},
{
glyphname = d;
lastChange = "2025-01-17 21:30:12 +0000";
layers = (
{
anchors = (
{
name = top;
pos = (389,641);
}
);
layerId = m01;
shapes = (
{
closed = 1;
nodes = (
(536,0,o),
(639,82,o),
(689,191,c),
(831,191,l),
(831,283,l),
(716,283,l),
(719,299,o),
(720,315,o),
(720,331,cs),
(719,360,l),
(831,360,l),
(831,452,l),
(695,452,l),
(648,562,o),
(540,641,o),
(420,641,cs),
(80,641,l),
(80,452,l),
(-10,452,l),
(-10,360,l),
(80,360,l),
(80,283,l),
(-10,283,l),
(-10,191,l),
(80,191,l),
(80,0,l),
(425,0,ls)
);
},
{
closed = 1;
nodes = (
(479,497,o),
(550,429,o),
(550,332,cs),
(548,222,o),
(477,144,o),
(363,144,cs),
(249,144,l),
(249,497,l),
(363,497,ls)
);
}
);
width = 821;
},
{
anchors = (
{
name = top;
pos = (379,641);
}
);
associatedMasterId = m01;
hints = (
{
horizontal = 1;
place = (0,156);
type = Stem;
},
{
horizontal = 1;
place = (497,144);
type = Stem;
},
{
place = (50,159);
type = Stem;
},
{
place = (313,160);
type = Stem;
}
);
layerId = m003;
name = Bold;
shapes = (
{
closed = 1;
nodes = (
(710,478,ls),
(710,570,o),
(635,641,o),
(545,641,cs),
(70,641,l),
(70,0,l),
(553,0,ls),
(646,0,o),
(710,66,o),
(710,160,cs)
);
},
{
closed = 1;
nodes = (
(510,180,l),
(270,180,l),
(270,461,l),
(510,461,l)
);
}
);
width = 780;
}
);
metricLeft = a;
metricRight = a;
unicode = 100;
},
{
glyphname = e;
lastChange = "2025-01-17 21:30:12 +0000";
layers = (
{
anchors = (
{
name = bottom;
pos = (399,0);
},
{
name = ogonek;
pos = (650,22);
},
{
name = top;
pos = (396,642);
}
);
hints = (
{
horizontal = 1;
place = (0,153);
type = Stem;
},
{
horizontal = 1;
place = (254,143);
type = Stem;
},
{
horizontal = 1;
place = (492,149);
type = Stem;
},
{
place = (50,156);
type = Stem;
}
);
layerId = m01;
shapes = (
{
closed = 1;
nodes = (
(720,0,l),
(720,144,l),
(260,144,l),
(260,253,l),
(564,253,l),
(564,397,l),
(260,397,l),
(260,496,l),
(720,496,l),
(720,640,l),
(80,640,l),
(80,452,l),
(-10,452,l),
(-10,360,l),
(80,360,l),
(80,283,l),
(-10,283,l),
(-10,191,l),
(80,191,l),
(80,0,l)
);
}
);
width = 780;
},
{
anchors = (
{
name = bottom;
pos = (389,0);
},
{
name = ogonek;
pos = (640,22);
},
{
name = top;
pos = (386,642);
}
);
associatedMasterId = m01;
hints = (
{
horizontal = 1;
place = (0,153);
type = Stem;
},
{
horizontal = 1;
place = (254,143);
type = Stem;
},
{
horizontal = 1;
place = (492,149);
type = Stem;
},
{
place = (50,156);
type = Stem;
}
);
layerId = m003;
name = Bold;
shapes = (
{
closed = 1;
nodes = (
(710,0,l),
(710,170,l),
(270,170,l),
(270,247,l),
(534,247,l),
(534,407,l),
(270,407,l),
(270,470,l),
(710,470,l),
(710,640,l),
(70,640,l),
(70,0,l)
);
}
);
width = 770;
}
);
metricLeft = a;
unicode = 101;
},
{
glyphname = f;
lastChange = "2025-01-17 21:30:12 +0000";
layers = (
{
hints = (
{
horizontal = 1;
place = (0,21);
target = up;
type = BottomGhost;
},
{
horizontal = 1;
place = (254,143);
type = Stem;
},
{
horizontal = 1;
place = (492,149);
type = Stem;
},
{
place = (50,158);
type = Stem;
}
);
layerId = m01;
shapes = (
{
closed = 1;
nodes = (
(250,0,l),
(250,253,l),
(564,253,l),
(564,397,l),
(250,397,l),
(250,485,l),
(720,485,l),
(720,641,l),
(80,641,l),
(80,452,l),
(-10,452,l),
(-10,360,l),
(80,360,l),
(80,283,l),
(-10,283,l),
(-10,191,l),
(80,191,l),
(80,0,l)
);
}
);
width = 770;
},
{
associatedMasterId = m01;
hints = (
{
horizontal = 1;
place = (0,21);
target = up;
type = BottomGhost;
},
{
horizontal = 1;
place = (254,143);
type = Stem;
},
{
horizontal = 1;
place = (492,149);
type = Stem;
},
{
place = (50,158);
type = Stem;
}
);
layerId = m003;
name = Bold;
shapes = (
{
closed = 1;
nodes = (
(270,0,l),
(270,204,l),
(534,204,l),
(534,364,l),
(270,364,l),
(270,461,l),
(710,461,l),
(710,641,l),
(70,641,l),
(70,0,l)
);
}
);
width = 770;
}
);
metricLeft = a;
unicode = 102;
},
{
glyphname = g;
lastChange = "2025-01-17 21:30:12 +0000";
layers = (
{
anchors = (
{
name = bottom;
pos = (412,1);
}
);
hints = (
{
horizontal = 1;
place = (0,144);
type = Stem;
},
{
horizontal = 1;
place = (498,143);
type = Stem;
},
{
place = (50,160);
type = Stem;
},
{
place = (311,157);
type = Stem;
}
);
layerId = m01;
shapes = (
{
closed = 1;
nodes = (
(728,0,l),
(728,25,l),
(831,25,l),
(831,117,l),
(728,117,l),
(728,191,l),
(831,191,l),
(831,283,l),
(728,283,l),
(728,398,l),
(415,398,l),
(415,254,l),
(562,254,l),
(562,144,l),
(258,144,l),
(258,497,l),
(728,497,l),
(728,641,l),
(189,641,ls),
(132,641,o),
(88,602,o),
(88,547,cs),
(88,452,l),
(-10,452,l),
(-10,360,l),
(88,360,l),
(88,283,l),
(-10,283,l),
(-10,191,l),
(88,191,l),
(88,95,ls),
(88,42,o),
(135,0,o),
(192,0,cs)
);
}
);
width = 821;
},
{
anchors = (
{
name = bottom;
pos = (392,1);
}
);
associatedMasterId = m01;
hints = (
{
horizontal = 1;
place = (0,144);
type = Stem;
},
{
horizontal = 1;
place = (498,143);
type = Stem;
},
{
place = (50,160);
type = Stem;
},
{
place = (311,157);
type = Stem;
}
);
layerId = m003;
name = Bold;
shapes = (
{
closed = 1;
nodes = (
(710,0,l),
(710,354,l),
(510,354,l),
(510,180,l),
(270,180,l),
(270,461,l),
(710,461,l),
(710,641,l),
(232,641,ls),
(140,641,o),
(70,575,o),
(70,481,cs),
(70,162,ls),
(70,71,o),
(145,0,o),
(236,0,cs)
);
},
{
closed = 1;
nodes = (
(710,244,l),
(710,384,l),
(397,384,l),
(397,244,l)
);
}
);
width = 780;
}
);
metricLeft = a;
metricRight = a;
unicode = 103;
},
{
glyphname = h;
lastChange = "2025-01-17 21:30:12 +0000";
layers = (
{
hints = (
{
horizontal = 1;
place = (0,21);
target = up;
type = BottomGhost;
},
{
horizontal = 1;
place = (641,-20);
target = down;
type = TopGhost;
},
{
place = (50,162);
type = Stem;
},
{
place = (333,162);
type = Stem;
}
);
layerId = m01;
shapes = (
{
closed = 1;
nodes = (
(730,0,l),
(730,191,l),
(831,191,l),
(831,283,l),
(730,283,l),
(730,360,l),
(831,360,l),
(831,452,l),
(730,452,l),
(730,640,l),
(560,640,l),
(560,380,l),
(260,380,l),
(260,640,l),
(90,640,l),
(90,452,l),
(-10,452,l),
(-10,360,l),
(90,360,l),
(90,283,l),
(-10,283,l),
(-10,191,l),
(90,191,l),
(90,0,l),
(260,0,l),
(260,236,l),
(560,236,l),
(560,0,l)
);
}
);
width = 821;
},
{
associatedMasterId = m01;
hints = (
{
horizontal = 1;
place = (0,21);
target = up;
type = BottomGhost;
},
{
horizontal = 1;
place = (641,-20);
target = down;
type = TopGhost;
},
{
place = (50,162);
type = Stem;
},
{
place = (333,162);
type = Stem;
}
);
layerId = m003;
name = Bold;
shapes = (
{
closed = 1;
nodes = (
(710,0,l),
(710,640,l),
(510,640,l),
(510,406,l),
(270,406,l),
(270,640,l),
(70,640,l),
(70,0,l),
(270,0,l),
(270,246,l),
(510,246,l),
(510,0,l)
);
}
);
width = 780;
}
);
metricLeft = a;
metricRight = a;
unicode = 104;
},
{
glyphname = i;
lastChange = "2025-01-17 21:30:12 +0000";
layers = (
{
anchors = (
{
name = ogonek;
pos = (257,19);
},
{
name = top;
pos = (242,641);
}
);
hints = (
{
horizontal = 1;
place = (0,21);
target = up;
type = BottomGhost;
},
{
horizontal = 1;
place = (641,-20);
target = down;
type = TopGhost;
},
{
place = (50,159);
type = Stem;
}
);
layerId = m01;
shapes = (
{
closed = 1;
nodes = (
(440,0,l),
(440,144,l),
(330,144,l),
(330,496,l),
(440,496,l),
(440,640,l),
(330,640,l),
(330,641,l),
(160,641,l),
(160,640,l),
(40,640,l),
(40,496,l),
(160,496,l),
(160,144,l),
(40,144,l),
(40,0,l)
);
}
);
width = 480;
},
{
anchors = (
{
name = ogonek;
pos = (373,23);
},
{
name = top;
pos = (245,641);
}
);
associatedMasterId = m01;
hints = (
{
horizontal = 1;
place = (0,21);
target = up;
type = BottomGhost;
},
{
horizontal = 1;
place = (641,-20);
target = down;
type = TopGhost;
},
{
place = (50,159);
type = Stem;
}
);
layerId = m003;
name = Bold;
shapes = (
{
closed = 1;
nodes = (
(340,0,l),
(340,641,l),
(140,641,l),
(140,0,l)
);
},
{
closed = 1;
nodes = (
(446,480,l),
(446,640,l),
(35,640,l),
(35,480,l)
);
},
{
closed = 1;
nodes = (
(35,160,l),
(35,0,l),
(446,0,l),
(446,160,l)
);
}
);
width = 481;
}
);
unicode = 105;
},
{
glyphname = j;
lastChange = "2025-01-17 21:30:12 +0000";
layers = (
{
hints = (
{
horizontal = 1;
place = (0,136);
type = Stem;
},
{
horizontal = 1;
place = (641,-20);
target = down;
type = TopGhost;
},
{
place = (200,157);
type = Stem;
}
);
layerId = m01;
shapes = (
{
closed = 1;
nodes = (
(740,191,l),
(831,191,l),
(831,283,l),
(740,283,l),
(740,360,l),
(831,360,l),
(831,452,l),
(740,452,l),
(740,640,l),
(570,640,l),
(570,156,l),
(250,156,l),
(250,283,l),
(-10,283,l),
(-10,191,l),
(80,191,l),
(80,94,ls),
(80,39,o),
(120,0,o),
(178,0,cs),
(643,0,ls),
(700,0,o),
(740,39,o),
(740,94,cs)
);
}
);
width = 821;
},
{
associatedMasterId = m01;
hints = (
{
horizontal = 1;
place = (0,136);
type = Stem;
},
{
horizontal = 1;
place = (641,-20);
target = down;
type = TopGhost;
},
{
place = (200,157);
type = Stem;
}
);
layerId = m003;
name = Bold;
shapes = (
{
closed = 1;
nodes = (
(720,640,l),
(520,640,l),
(520,180,l),
(260,180,l),
(260,282,l),
(60,282,l),
(60,160,ls),
(60,66,o),
(124,0,o),
(217,0,cs),
(565,0,ls),
(656,0,o),
(720,66,o),
(720,160,cs)
);
}
);
width = 790;
}
);
metricLeft = a;
metricRight = a;
unicode = 106;
},
{
glyphname = k;
lastChange = "2025-01-17 21:30:12 +0000";
layers = (
{
hints = (
{
horizontal = 1;
place = (0,21);
target = up;
type = BottomGhost;
},
{
horizontal = 1;
place = (641,-20);
target = down;
type = TopGhost;
},
{
place = (50,164);
type = Stem;
},
{
place = (312,148);
type = Stem;
}
);
layerId = m01;
shapes = (
{
closed = 1;
nodes = (
(518,391,l),
(757,640,l),
(547,640,l),
(312,391,l),
(260,391,l),
(260,640,l),
(90,640,l),
(90,452,l),
(-10,452,l),
(-10,360,l),
(90,360,l),
(90,283,l),
(-10,283,l),
(-10,191,l),
(90,191,l),
(90,0,l),
(260,0,l),
(260,235,l),
(560,235,l),
(560,0,l),
(730,0,l),
(730,191,l),
(831,191,l),
(831,283,l),
(730,283,l),
(730,284,ls),
(730,348,o),
(689,384,o),
(631,391,c)
);
}
);
width = 821;
},
{
associatedMasterId = m01;
hints = (
{
horizontal = 1;
place = (0,21);
target = up;
type = BottomGhost;
},
{
horizontal = 1;
place = (641,-20);
target = down;
type = TopGhost;
},
{
place = (50,164);
type = Stem;
},
{
place = (312,148);
type = Stem;
}
);
layerId = m003;
name = Bold;
shapes = (
{
closed = 1;
nodes = (
(533,391,l),
(737,640,l),
(512,640,l),
(312,391,l),
(270,391,l),
(270,640,l),
(70,640,l),
(70,0,l),
(270,0,l),
(270,211,l),
(510,211,l),
(510,0,l),
(710,0,l),
(710,209,ls),
(710,318,o),
(644,379,o),
(552,391,c)
);
}
);
width = 797;
}
);
metricLeft = a;
metricRight = a;
unicode = 107;
},
{
glyphname = l;
lastChange = "2025-01-17 21:30:12 +0000";
layers = (
{
hints = (
{
horizontal = 1;
place = (0,146);
type = Stem;
},
{
horizontal = 1;
place = (641,-20);
target = down;
type = TopGhost;
},
{
place = (50,156);
type = Stem;
}
);
layerId = m01;
shapes = (
{
closed = 1;
nodes = (
(730,0,l),
(730,144,l),
(260,144,l),
(260,641,l),
(90,641,l),
(90,452,l),
(-10,452,l),
(-10,360,l),
(90,360,l),
(90,283,l),
(-10,283,l),
(-10,191,l),
(90,191,l),
(90,0,l)
);
}
);
width = 770;
},
{
associatedMasterId = m01;
hints = (
{
horizontal = 1;
place = (0,146);
type = Stem;
},
{
horizontal = 1;
place = (641,-20);
target = down;
type = TopGhost;
},
{
place = (50,156);
type = Stem;
}
);
layerId = m003;
name = Bold;
shapes = (
{
closed = 1;
nodes = (
(710,0,l),
(710,180,l),
(270,180,l),
(270,641,l),
(70,641,l),
(70,0,l)
);
}
);
width = 750;
}
);
metricLeft = a;
unicode = 108;
},
{
glyphname = m;
lastChange = "2025-01-17 21:30:12 +0000";
layers = (
{
hints = (
{
horizontal = 1;
place = (0,21);
target = up;
type = BottomGhost;
},
{
horizontal = 1;
place = (641,-20);
target = down;
type = TopGhost;
},
{
place = (50,164);
type = Stem;
},
{
place = (525,165);
type = Stem;
}
);
layerId = m01;
shapes = (
{
closed = 1;
nodes = (
(91,452,l),
(-10,452,l),
(-10,360,l),
(91,360,l),
(91,283,l),
(-10,283,l),
(-10,191,l),
(91,191,l),
(90,0,l),
(261,0,l),
(261,496,l),
(500,496,l),
(495,0,l),
(666,0,l),
(666,496,l),
(900,496,l),
(900,0,l),
(1070,0,l),
(1070,191,l),
(1172,191,l),
(1172,283,l),
(1070,283,l),
(1070,360,l),
(1172,360,l),
(1172,452,l),
(1070,452,l),
(1070,480,ls),
(1070,574,o),
(1006,640,o),
(913,640,cs),
(92,640,l)
);
}
);
width = 1162;
},
{
associatedMasterId = m01;
hints = (
{
horizontal = 1;
place = (0,21);
target = up;
type = BottomGhost;
},
{
horizontal = 1;
place = (641,-20);
target = down;
type = TopGhost;
},
{
place = (50,30);
type = Stem;
},
{
place = (347,-267);
type = Stem;
},
{
horizontal = 1;
origin = (0,0);
target = up;
type = BottomGhost;
},
{
horizontal = 1;
origin = (0,5);
target = down;
type = TopGhost;
},
{
origin = (0,0);
type = Stem;
},
{
origin = (0,1);
type = Stem;
}
);
layerId = m003;
name = Bold;
shapes = (
{
closed = 1;
nodes = (
(70,0,l),
(271,0,l),
(271,480,l),
(470,480,l),
(572,640,l),
(72,640,l)
);
},
{
closed = 1;
nodes = (
(470,0,l),
(670,0,l),
(670,480,l),
(870,480,l),
(870,0,l),
(1070,0,l),
(1070,480,ls),
(1070,574,o),
(1006,640,o),
(913,640,cs),
(472,640,l)
);
}
);
width = 1140;
}
);
metricLeft = a;
metricRight = a;
unicode = 109;
},
{
glyphname = n;
lastChange = "2025-01-17 21:30:12 +0000";
layers = (
{
anchors = (
{
name = bottom;
pos = (409,0);
},
{
name = top;
pos = (406,642);
}
);
hints = (
{
horizontal = 1;
place = (0,21);
target = up;
type = BottomGhost;
},
{
horizontal = 1;
place = (641,-20);
target = down;
type = TopGhost;
},
{
place = (50,150);
type = Stem;
},
{
place = (347,149);
type = Stem;
}
);
layerId = m01;
shapes = (
{
closed = 1;
nodes = (
(91,452,l),
(-10,452,l),
(-10,360,l),
(91,360,l),
(91,283,l),
(-10,283,l),
(-10,191,l),
(91,191,l),
(90,0,l),
(261,0,l),
(261,496,l),
(560,496,l),
(560,0,l),
(730,0,l),
(730,191,l),
(831,191,l),
(831,283,l),
(730,283,l),
(730,360,l),
(831,360,l),
(831,452,l),
(730,452,l),
(730,480,ls),
(730,574,o),
(666,640,o),
(573,640,cs),
(92,640,l)
);
}
);
width = 821;
},
{
anchors = (
{
name = bottom;
pos = (389,0);
},
{
name = top;
pos = (386,642);
}
);
associatedMasterId = m01;
hints = (
{
horizontal = 1;
place = (0,21);
target = up;
type = BottomGhost;
},
{
horizontal = 1;
place = (641,-20);
target = down;
type = TopGhost;
},
{
place = (50,150);
type = Stem;
},
{
place = (347,149);
type = Stem;
}
);
layerId = m003;
name = Bold;
shapes = (
{
closed = 1;
nodes = (
(70,0,l),
(271,0,l),
(271,480,l),
(530,480,l),
(530,0,l),
(730,0,l),
(730,480,ls),
(730,574,o),
(666,640,o),
(573,640,cs),
(72,640,l)
);
}
);
width = 800;
}
);
metricLeft = a;
metricRight = a;
unicode = 110;
},
{
glyphname = o;
lastChange = "2025-01-17 21:30:12 +0000";
layers = (
{
anchors = (
{
name = bottom;
pos = (409,0);
},
{
name = top;
pos = (406,642);
}
);
hints = (
{
horizontal = 1;
place = (0,156);
type = Stem;
},
{
horizontal = 1;
place = (497,144);
type = Stem;
},
{
place = (50,160);
type = Stem;
},
{
place = (312,160);
type = Stem;
}
);
layerId = m01;
shapes = (
{
closed = 1;
nodes = (
(730,191,l),
(831,191,l),
(831,283,l),
(730,283,l),
(730,360,l),
(831,360,l),
(831,452,l),
(730,452,l),
(730,544,ls),
(730,598,o),
(683,640,o),
(627,640,cs),
(193,640,ls),
(137,640,o),
(90,598,o),
(90,544,cs),
(90,452,l),
(-10,452,l),
(-10,360,l),
(90,360,l),
(90,283,l),
(-10,283,l),
(-10,191,l),
(90,191,l),
(90,94,ls),
(90,39,o),
(130,0,o),
(188,0,cs),
(632,0,ls),
(690,0,o),
(730,39,o),
(730,94,cs)
);
},
{
closed = 1;
nodes = (
(560,144,l),
(260,144,l),
(260,496,l),
(560,496,l)
);
}
);
width = 821;
},
{
anchors = (
{
name = bottom;
pos = (379,0);
},
{
name = top;
pos = (376,642);
}
);
associatedMasterId = m01;
hints = (
{
horizontal = 1;
origin = (0,11);
type = Stem;
},
{
horizontal = 1;
origin = (1,2);
type = Stem;
},
{
origin = (0,8);
type = Stem;
},
{
origin = (1,1);
type = Stem;
}
);
layerId = m003;
name = Bold;
shapes = (
{
closed = 1;
nodes = (
(710,477,ls),
(710,569,o),
(635,640,o),
(545,640,cs),
(235,640,ls),
(145,640,o),
(70,569,o),
(70,477,cs),
(70,160,ls),
(70,66,o),
(134,0,o),
(227,0,cs),
(553,0,ls),
(646,0,o),
(710,66,o),
(710,160,cs)
);
},
{
closed = 1;
nodes = (
(510,160,l),
(270,160,l),
(270,480,l),
(510,480,l)
);
}
);
width = 780;
}
);
metricLeft = a;
metricRight = a;
unicode = 111;
},
{
glyphname = p;
lastChange = "2025-01-17 21:30:12 +0000";
layers = (
{
hints = (
{
horizontal = 1;
place = (0,21);
target = up;
type = BottomGhost;
},
{
horizontal = 1;
place = (200,143);
type = Stem;
},
{
horizontal = 1;
place = (497,144);
type = Stem;
},
{
place = (50,159);
type = Stem;
},
{
place = (313,160);
type = Stem;
}
);
layerId = m01;
shapes = (
{
closed = 1;
nodes = (
(730,360,l),
(831,360,l),
(831,452,l),
(730,452,l),
(730,544,ls),
(730,598,o),
(683,640,o),
(627,640,cs),
(90,640,l),
(90,452,l),
(-10,452,l),
(-10,360,l),
(90,360,l),
(90,283,l),
(-10,283,l),
(-10,191,l),
(90,191,l),
(90,0,l),
(260,0,l),
(260,180,l),
(631,180,ls),
(677,180,o),
(730,213,o),
(730,273,cs)
);
},
{
closed = 1;
nodes = (
(560,324,l),
(260,324,l),
(260,496,l),
(560,496,l)
);
}
);
width = 821;
},
{
associatedMasterId = m01;
hints = (
{
horizontal = 1;
place = (0,21);
target = up;
type = BottomGhost;
},
{
horizontal = 1;
place = (200,143);
type = Stem;
},
{
horizontal = 1;
place = (497,144);
type = Stem;
},
{
place = (50,159);
type = Stem;
},
{
place = (313,160);
type = Stem;
}
);
layerId = m003;
name = Bold;
shapes = (
{
closed = 1;
nodes = (
(710,477,ls),
(710,569,o),
(635,640,o),
(545,640,cs),
(70,640,l),
(70,0,l),
(270,0,l),
(270,170,l),
(552,170,ls),
(625,170,o),
(710,226,o),
(710,328,cs)
);
},
{
closed = 1;
nodes = (
(510,330,l),
(270,330,l),
(270,480,l),
(510,480,l)
);
}
);
width = 760;
}
);
metricLeft = a;
metricRight = a;
unicode = 112;
},
{
glyphname = q;
lastChange = "2025-01-17 21:30:12 +0000";
layers = (
{
hints = (
{
horizontal = 1;
place = (-126,21);
target = up;
type = BottomGhost;
},
{
horizontal = 1;
place = (0,21);
target = up;
type = BottomGhost;
},
{
horizontal = 1;
place = (501,140);
type = Stem;
},
{
place = (50,160);
type = Stem;
},
{
place = (312,160);
type = Stem;
}
);
layerId = m01;
shapes = (
{
closed = 1;
nodes = (
(332,0,l),
(332,-186,l),
(488,-186,l),
(488,0,l),
(632,0,ls),
(690,0,o),
(730,39,o),
(730,94,cs),
(730,191,l),
(831,191,l),
(831,283,l),
(730,283,l),
(730,360,l),
(831,360,l),
(831,452,l),
(730,452,l),
(730,544,ls),
(730,598,o),
(683,640,o),
(627,640,cs),
(193,640,ls),
(137,640,o),
(90,598,o),
(90,544,cs),
(90,452,l),
(-10,452,l),
(-10,360,l),
(90,360,l),
(90,283,l),
(-10,283,l),
(-10,191,l),
(90,191,l),
(90,94,ls),
(90,39,o),
(130,0,o),
(188,0,cs)
);
},
{
closed = 1;
nodes = (
(260,496,l),
(560,496,l),
(560,144,l),
(260,144,l)
);
}
);
width = 821;
},
{
associatedMasterId = m01;
hints = (
{
horizontal = 1;
place = (-126,21);
target = up;
type = BottomGhost;
},
{
horizontal = 1;
place = (0,21);
target = up;
type = BottomGhost;
},
{
horizontal = 1;
place = (501,140);
type = Stem;
},
{
place = (50,160);
type = Stem;
},
{
place = (312,160);
type = Stem;
}
);
layerId = m003;
name = Bold;
shapes = (
{
closed = 1;
nodes = (
(553,0,ls),
(646,0,o),
(710,66,o),
(710,160,cs),
(710,477,ls),
(710,569,o),
(635,640,o),
(545,640,cs),
(235,640,ls),
(145,640,o),
(70,569,o),
(70,477,cs),
(70,160,ls),
(70,66,o),
(134,0,o),
(227,0,cs)
);
},
{
closed = 1;
nodes = (
(270,480,l),
(510,480,l),
(510,160,l),
(270,160,l)
);
},
{
closed = 1;
nodes = (
(470,-156,l),
(470,31,l),
(290,31,l),
(290,-156,l)
);
}
);
width = 780;
}
);
metricLeft = a;
metricRight = a;
unicode = 113;
},
{
glyphname = r;
lastChange = "2025-01-17 21:30:12 +0000";
layers = (
{
anchors = (
{
name = bottom;
pos = (409,0);
},
{
name = top;
pos = (406,642);
}
);
hints = (
{
horizontal = 1;
place = (0,21);
target = up;
type = BottomGhost;
},
{
horizontal = 1;
place = (501,140);
type = Stem;
},
{
place = (50,162);
type = Stem;
},
{
place = (316,160);
type = Stem;
}
);
layerId = m01;
shapes = (
{
closed = 1;
nodes = (
(730,360,l),
(831,360,l),
(831,452,l),
(730,452,l),
(730,544,ls),
(730,598,o),
(683,640,o),
(627,640,cs),
(90,640,l),
(90,452,l),
(-10,452,l),
(-10,360,l),
(90,360,l),
(90,283,l),
(-10,283,l),
(-10,191,l),
(90,191,l),
(90,0,l),
(260,0,l),
(260,180,l),
(360,180,l),
(530,0,l),
(740,0,l),
(567,180,l),
(631,180,ls),
(677,180,o),
(730,213,o),
(730,273,cs)
);
},
{
closed = 1;
nodes = (
(560,324,l),
(260,324,l),
(260,496,l),
(560,496,l)
);
}
);
width = 821;
},
{
anchors = (
{
name = bottom;
pos = (389,0);
},
{
name = top;
pos = (386,642);
}
);
associatedMasterId = m01;
hints = (
{
horizontal = 1;
place = (0,21);
target = up;
type = BottomGhost;
},
{
horizontal = 1;
place = (501,140);
type = Stem;
},
{
place = (50,162);
type = Stem;
},
{
place = (316,160);
type = Stem;
}
);
layerId = m003;
name = Bold;
shapes = (
{
closed = 1;
nodes = (
(710,0,l),
(710,152,ls),
(710,214,o),
(671,267,o),
(630,291,c),
(675,309,o),
(710,361,o),
(710,411,cs),
(710,468,ls),
(710,558,o),
(630,640,o),
(540,640,cs),
(70,640,l),
(70,0,l),
(270,0,l),
(270,180,l),
(510,180,l),
(510,0,l)
);
},
{
closed = 1;
nodes = (
(510,340,l),
(270,340,l),
(270,480,l),
(510,480,l)
);
}
);
width = 780;
}
);
metricLeft = a;
metricRight = a;
unicode = 114;
},
{
glyphname = s;
lastChange = "2025-01-17 21:30:12 +0000";
layers = (
{
anchors = (
{
name = bottom;
pos = (409,0);
},
{
name = top;
pos = (406,640);
}
);
hints = (
{
horizontal = 1;
place = (0,140);
type = Stem;
},
{
horizontal = 1;
place = (253,140);
type = Stem;
},
{
horizontal = 1;
place = (500,141);
type = Stem;
},
{
place = (50,162);
type = Stem;
},
{
place = (303,157);
type = Stem;
},
{
horizontal = 1;
place = (466,175);
type = Stem;
},
{
horizontal = 1;
place = (0,177);
type = Stem;
}
);
layerId = m01;
shapes = (
{
closed = 1;
nodes = (
(730,191,l),
(831,191,l),
(831,283,l),
(730,283,l),
(730,302,ls),
(730,356,o),
(686,395,o),
(629,395,cs),
(260,395,l),
(260,497,l),
(710,497,l),
(710,640,l),
(194,640,ls),
(138,640,o),
(90,606,o),
(90,546,cs),
(90,452,l),
(-10,452,l),
(-10,360,l),
(90,360,l),
(90,336,ls),
(90,291,o),
(138,251,o),
(194,251,cs),
(562,251,l),
(562,142,l),
(110,142,l),
(110,0,l),
(626,0,ls),
(683,0,o),
(730,42,o),
(730,95,cs)
);
}
);
width = 821;
},
{
anchors = (
{
name = bottom;
pos = (389,0);
},
{
name = top;
pos = (386,640);
}
);
associatedMasterId = m01;
hints = (
{
horizontal = 1;
place = (0,140);
type = Stem;
},
{
horizontal = 1;
place = (253,140);
type = Stem;
},
{
horizontal = 1;
place = (500,141);
type = Stem;
},
{
place = (50,162);
type = Stem;
},
{
place = (303,157);
type = Stem;
},
{
horizontal = 1;
place = (466,175);
type = Stem;
},
{
horizontal = 1;
place = (0,177);
type = Stem;
}
);
layerId = m003;
name = Bold;
shapes = (
{
closed = 1;
nodes = (
(710,245,ls),
(710,337,o),
(640,403,o),
(548,403,cs),
(270,403,l),
(270,482,l),
(680,482,l),
(680,640,l),
(236,640,ls),
(147,640,o),
(70,582,o),
(70,480,cs),
(70,388,ls),
(70,311,o),
(147,243,o),
(236,243,cs),
(510,243,l),
(510,158,l),
(100,158,l),
(100,0,l),
(544,0,ls),
(635,0,o),
(710,71,o),
(710,162,cs)
);
}
);
width = 780;
}
);
metricLeft = a;
metricRight = a;
unicode = 115;
},
{
glyphname = t;
lastChange = "2025-01-17 21:30:12 +0000";
layers = (
{
anchors = (
{
name = top;
pos = (370,641);
}
);
hints = (
{
horizontal = 1;
place = (0,21);
target = up;
type = BottomGhost;
},
{
horizontal = 1;
place = (494,147);
type = Stem;
},
{
place = (165,160);
type = Stem;
}
);
layerId = m01;
shapes = (
{
closed = 1;
nodes = (
(680,493,l),
(680,640,l),
(40,640,l),
(40,493,l),
(275,493,l),
(275,452,l),
(178,452,l),
(178,360,l),
(275,360,l),
(275,283,l),
(178,283,l),
(178,191,l),
(275,191,l),
(275,0,l),
(445,0,l),
(445,191,l),
(542,191,l),
(542,283,l),
(445,283,l),
(445,360,l),
(542,360,l),
(542,452,l),
(445,452,l),
(445,493,l)
);
}
);
width = 720;
},
{
anchors = (
{
name = top;
pos = (363,644);
}
);
associatedMasterId = m01;
hints = (
{
horizontal = 1;
place = (0,21);
target = up;
type = BottomGhost;
},
{
horizontal = 1;
place = (494,147);
type = Stem;
},
{
place = (165,160);
type = Stem;
}
);
layerId = m003;
name = Bold;
shapes = (
{
closed = 1;
nodes = (
(680,460,l),
(680,640,l),
(40,640,l),
(40,460,l),
(260,460,l),
(260,0,l),
(460,0,l),
(460,460,l)
);
}
);
width = 730;
}
);
unicode = 116;
},
{
glyphname = u;
lastChange = "2025-01-17 21:30:12 +0000";
layers = (
{
anchors = (
{
name = bottom;
pos = (410,0);
},
{
name = ogonek;
pos = (653,30);
},
{
name = top;
pos = (407,642);
}
);
hints = (
{
horizontal = 1;
place = (0,156);
type = Stem;
},
{
horizontal = 1;
place = (641,-20);
target = down;
type = TopGhost;
},
{
place = (50,160);
type = Stem;
},
{
place = (331,159);
type = Stem;
}
);
layerId = m01;
shapes = (
{
closed = 1;
nodes = (
(740,191,l),
(831,191,l),
(831,283,l),
(740,283,l),
(740,360,l),
(831,360,l),
(831,452,l),
(740,452,l),
(740,640,l),
(570,640,l),
(570,144,l),
(250,144,l),
(250,640,l),
(80,640,l),
(80,452,l),
(-10,452,l),
(-10,360,l),
(80,360,l),
(80,283,l),
(-10,283,l),
(-10,191,l),
(80,191,l),
(80,94,ls),
(80,39,o),
(120,0,o),
(178,0,cs),
(643,0,ls),
(700,0,o),
(740,39,o),
(740,94,cs)
);
}
);
width = 821;
},
{
anchors = (
{
name = bottom;
pos = (399,0);
},
{
name = ogonek;
pos = (614,26);
},
{
name = top;
pos = (396,642);
}
);
associatedMasterId = m01;
hints = (
{
horizontal = 1;
place = (0,156);
type = Stem;
},
{
horizontal = 1;
place = (641,-20);
target = down;
type = TopGhost;
},
{
place = (50,160);
type = Stem;
},
{
place = (331,159);
type = Stem;
}
);
layerId = m003;
name = Bold;
shapes = (
{
closed = 1;
nodes = (
(730,640,l),
(530,640,l),
(530,160,l),
(270,160,l),
(270,640,l),
(70,640,l),
(70,160,ls),
(70,66,o),
(134,0,o),
(227,0,cs),
(575,0,ls),
(666,0,o),
(730,66,o),
(730,160,cs)
);
}
);
width = 800;
}
);
metricLeft = a;
metricRight = a;
unicode = 117;
},
{
glyphname = v;
lastChange = "2025-01-17 21:30:12 +0000";
layers = (
{
hints = (
{
horizontal = 1;
place = (0,21);
target = up;
type = BottomGhost;
},
{
horizontal = 1;
place = (641,-20);
target = down;
type = TopGhost;
}
);
layerId = m01;
shapes = (
{
closed = 1;
nodes = (
(545,191,l),
(738,191,l),
(738,283,l),
(581,283,l),
(611,360,l),
(738,360,l),
(738,452,l),
(647,452,l),
(720,640,l),
(553,640,l),
(367,166,l),
(186,640,l),
(20,640,l),
(91,452,l),
(-10,452,l),
(-10,360,l),
(125,360,l),
(154,283,l),
(-10,283,l),
(-10,191,l),
(189,191,l),
(261,0,l),
(470,0,l)
);
}
);
width = 728;
},
{
associatedMasterId = m01;
hints = (
{
horizontal = 1;
place = (0,21);
target = up;
type = BottomGhost;
},
{
horizontal = 1;
place = (641,-20);
target = down;
type = TopGhost;
}
);
layerId = m003;
name = Bold;
shapes = (
{
closed = 1;
nodes = (
(715,640,l),
(518,640,l),
(348,199,l),
(365,199,l),
(201,640,l),
(5,640,l),
(246,0,l),
(465,0,l)
);
}
);
width = 720;
}
);
metricLeft = a;
metricRight = a;
unicode = 118;
},
{
glyphname = w;
lastChange = "2025-01-17 21:30:12 +0000";
layers = (
{
hints = (
{
horizontal = 1;
place = (0,21);
target = up;
type = BottomGhost;
},
{
horizontal = 1;
place = (641,-20);
target = down;
type = TopGhost;
}
);
layerId = m01;
shapes = (
{
closed = 1;
nodes = (
(534,317,l),
(635,0,l),
(830,0,l),
(896,191,l),
(1082,191,l),
(1082,283,l),
(927,283,l),
(954,360,l),
(1082,360,l),
(1082,452,l),
(985,452,l),
(1050,640,l),
(873,640,l),
(736,205,l),
(604,641,l),
(603,640,l),
(471,640,l),
(334,207,l),
(201,640,l),
(30,640,l),
(92,452,l),
(-10,452,l),
(-10,360,l),
(122,360,l),
(148,283,l),
(-10,283,l),
(-10,191,l),
(178,191,l),
(241,0,l),
(428,0,l)
);
}
);
width = 1072;
},
{
associatedMasterId = m01;
hints = (
{
horizontal = 1;
place = (0,21);
target = up;
type = BottomGhost;
},
{
horizontal = 1;
place = (641,-20);
target = down;
type = TopGhost;
}
);
layerId = m003;
name = Bold;
shapes = (
{
closed = 1;
nodes = (
(573,503,l),
(602,641,l),
(428,640,l),
(290,198,l),
(344,198,l),
(211,640,l),
(5,640,l),
(216,0,l),
(405,0,l)
);
},
{
closed = 1;
nodes = (
(1025,640,l),
(828,640,l),
(690,198,l),
(733,198,l),
(602,641,l),
(438,525,l),
(606,0,l),
(805,0,l)
);
}
);
width = 1030;
}
);
metricLeft = a;
metricRight = a;
unicode = 119;
},
{
glyphname = x;
lastChange = "2025-01-17 21:30:12 +0000";
layers = (
{
hints = (
{
horizontal = 1;
place = (0,21);
target = up;
type = BottomGhost;
},
{
horizontal = 1;
place = (641,-20);
target = down;
type = TopGhost;
}
);
layerId = m01;
shapes = (
{
closed = 1;
nodes = (
(680,0,l),
(542,191,l),
(724,191,l),
(724,283,l),
(476,283,l),
(450,320,l),
(478,360,l),
(724,360,l),
(724,452,l),
(545,452,l),
(680,640,l),
(491,640,l),
(355,451,l),
(219,640,l),
(30,640,l),
(165,452,l),
(-10,452,l),
(-10,360,l),
(232,360,l),
(261,320,l),
(234,283,l),
(-10,283,l),
(-10,191,l),
(168,191,l),
(30,0,l),
(219,0,l),
(355,189,l),
(491,0,l)
);
}
);
width = 710;
},
{
associatedMasterId = m01;
hints = (
{
horizontal = 1;
place = (0,21);
target = up;
type = BottomGhost;
},
{
horizontal = 1;
place = (641,-20);
target = down;
type = TopGhost;
}
);
layerId = m003;
name = Bold;
shapes = (
{
closed = 1;
nodes = (
(700,0,l),
(246,640,l),
(30,640,l),
(484,0,l)
);
},
{
closed = 1;
nodes = (
(700,640,l),
(484,640,l),
(30,0,l),
(246,0,l)
);
}
);
width = 730;
}
);
unicode = 120;
},
{
glyphname = y;
lastChange = "2025-01-17 21:30:12 +0000";
layers = (
{
anchors = (
{
name = top;
pos = (413,641);
}
);
hints = (
{
horizontal = 1;
place = (0,21);
target = up;
type = BottomGhost;
},
{
horizontal = 1;
place = (641,-20);
target = down;
type = TopGhost;
},
{
place = (40,157);
type = Stem;
},
{
place = (292,159);
type = Stem;
},
{
place = (167,153);
type = Stem;
}
);
layerId = m01;
shapes = (
{
closed = 1;
nodes = (
(499,0,l),
(499,216,l),
(634,216,ls),
(688,216,o),
(731,255,o),
(731,309,cs),
(731,360,l),
(831,360,l),
(831,452,l),
(731,452,l),
(731,640,l),
(561,640,l),
(561,360,l),
(260,360,l),
(260,640,l),
(90,640,l),
(90,452,l),
(-10,452,l),
(-10,360,l),
(90,360,l),
(90,309,ls),
(90,255,o),
(133,216,o),
(187,216,cs),
(329,216,l),
(329,0,l)
);
}
);
width = 821;
},
{
anchors = (
{
name = top;
pos = (370,641);
}
);
associatedMasterId = m01;
hints = (
{
horizontal = 1;
place = (0,21);
target = up;
type = BottomGhost;
},
{
horizontal = 1;
place = (641,-20);
target = down;
type = TopGhost;
},
{
place = (40,157);
type = Stem;
},
{
place = (292,159);
type = Stem;
},
{
place = (167,153);
type = Stem;
}
);
layerId = m003;
name = Bold;
shapes = (
{
closed = 1;
nodes = (
(484,0,l),
(484,206,l),
(546,206,ls),
(632,206,o),
(701,272,o),
(701,364,cs),
(701,640,l),
(501,640,l),
(501,366,l),
(260,366,l),
(260,640,l),
(60,640,l),
(60,364,ls),
(60,272,o),
(129,206,o),
(215,206,cs),
(284,206,l),
(284,0,l)
);
}
);
width = 761;
}
);
metricLeft = a;
metricRight = a;
unicode = 121;
},
{
glyphname = z;
lastChange = "2025-01-17 21:30:12 +0000";
layers = (
{
anchors = (
{
name = bottom;
pos = (347,0);
},
{
name = top;
pos = (359,641);
}
);
hints = (
{
horizontal = 1;
place = (0,147);
type = Stem;
},
{
horizontal = 1;
place = (492,149);
type = Stem;
}
);
layerId = m01;
shapes = (
{
closed = 1;
nodes = (
(688,0,l),
(688,144,l),
(318,144,l),
(517,360,l),
(746,360,l),
(746,452,l),
(602,452,l),
(688,545,l),
(688,640,l),
(48,640,l),
(48,496,l),
(425,496,l),
(384,452,l),
(-10,452,l),
(-10,360,l),
(297,360,l),
(48,95,l),
(48,0,l)
);
}
);
width = 736;
},
{
anchors = (
{
name = bottom;
pos = (373,2);
},
{
name = top;
pos = (380,641);
}
);
associatedMasterId = m01;
hints = (
{
horizontal = 1;
place = (0,147);
type = Stem;
},
{
horizontal = 1;
place = (492,149);
type = Stem;
}
);
layerId = m003;
name = Bold;
shapes = (
{
closed = 1;
nodes = (
(700,0,l),
(700,180,l),
(383,180,l),
(700,545,l),
(700,640,l),
(60,640,l),
(60,461,l),
(384,461,l),
(60,95,l),
(60,0,l)
);
}
);
width = 760;
}
);
metricLeft = a;
metricRight = a;
unicode = 122;
},
{
glyphname = zero;
lastChange = "2025-01-17 21:30:12 +0000";
layers = (
{
hints = (
{
horizontal = 1;
place = (0,156);
type = Stem;
},
{
horizontal = 1;
place = (497,144);
type = Stem;
},
{
place = (46,160);
type = Stem;
},
{
place = (344,160);
type = Stem;
}
);
layerId = m01;
shapes = (
{
closed = 1;
nodes = (
(727,544,ls),
(727,598,o),
(680,640,o),
(624,640,cs),
(540,640,l),
(540,790,l),
(438,790,l),
(438,640,l),
(361,640,l),
(361,790,l),
(259,790,l),
(259,640,l),
(183,640,ls),
(127,640,o),
(80,598,o),
(80,544,cs),
(80,94,ls),
(80,39,o),
(120,0,o),
(178,0,cs),
(259,0,l),
(259,-148,l),
(361,-148,l),
(361,0,l),
(438,0,l),
(438,-148,l),
(540,-148,l),
(540,0,l),
(629,0,ls),
(687,0,o),
(727,39,o),
(727,94,cs)
);
},
{
closed = 1;
nodes = (
(567,144,l),
(240,144,l),
(240,496,l),
(567,496,l)
);
}
);
width = 807;
},
{
associatedMasterId = m01;
layerId = m003;
name = Bold;
shapes = (
{
closed = 1;
nodes = (
(717,525,ls),
(717,590,o),
(647,640,o),
(563,640,cs),
(225,640,ls),
(141,640,o),
(70,590,o),
(70,525,cs),
(70,113,ls),
(70,47,o),
(130,0,o),
(217,0,cs),
(570,0,ls),
(657,0,o),
(717,47,o),
(717,113,cs)
);
},
{
closed = 1;
nodes = (
(517,160,l),
(270,160,l),
(270,480,l),
(517,480,l)
);
}
);
width = 787;
}
);
metricLeft = N;
metricRight = N;
unicode = 48;
},
{
glyphname = one;
lastChange = "2025-01-17 21:30:12 +0000";
layers = (
{
hints = (
{
horizontal = 1;
place = (0,21);
target = up;
type = BottomGhost;
},
{
horizontal = 1;
place = (497,145);
type = Stem;
},
{
place = (163,157);
type = Stem;
}
);
layerId = m01;
shapes = (
{
closed = 1;
nodes = (
(329,144,l),
(329,534,ls),
(329,605,o),
(308,642,o),
(230,642,cs),
(40,642,l),
(40,498,l),
(163,498,l),
(163,144,l),
(40,144,l),
(40,0,l),
(105,0,l),
(105,-148,l),
(207,-148,l),
(207,0,l),
(284,0,l),
(284,-148,l),
(386,-148,l),
(386,0,l),
(452,0,l),
(452,144,l)
);
}
);
width = 438;
},
{
associatedMasterId = m01;
hints = (
{
horizontal = 1;
place = (0,21);
target = up;
type = BottomGhost;
},
{
horizontal = 1;
place = (497,145);
type = Stem;
},
{
place = (163,157);
type = Stem;
}
);
layerId = m003;
name = Bold;
shapes = (
{
closed = 1;
nodes = (
(401,20,l),
(401,512,ls),
(401,598,o),
(370,642,o),
(253,642,cs),
(60,642,l),
(60,482,l),
(201,482,l),
(201,20,l)
);
},
{
closed = 1;
nodes = (
(60,160,l),
(60,0,l),
(542,0,l),
(542,160,l)
);
}
);
width = 602;
}
);
unicode = 49;
},
{
glyphname = two;
lastChange = "2025-01-17 21:30:12 +0000";
layers = (
{
layerId = m01;
shapes = (
{
closed = 1;
nodes = (
(259,0,l),
(259,-148,l),
(361,-148,l),
(361,0,l),
(438,0,l),
(438,-148,l),
(540,-148,l),
(540,0,l),
(720,0,l),
(720,144,l),
(240,144,l),
(240,244,l),
(619,244,ls),
(676,244,o),
(720,283,o),
(720,338,cs),
(720,544,ls),
(720,598,o),
(673,640,o),
(616,640,cs),
(540,640,l),
(540,790,l),
(438,790,l),
(438,640,l),
(361,640,l),
(361,790,l),
(259,790,l),
(259,640,l),
(184,640,ls),
(128,640,o),
(80,598,o),
(80,544,cs),
(80,453,l),
(240,453,l),
(240,496,l),
(560,496,l),
(560,385,l),
(164,385,ls),
(80,385,o),
(80,310,o),
(80,310,c),
(80,0,l)
);
}
);
width = 800;
},
{
associatedMasterId = m01;
hints = (
{
horizontal = 1;
place = (0,149);
type = Stem;
},
{
horizontal = 1;
place = (226,141);
type = Stem;
},
{
horizontal = 1;
place = (454,187);
type = Stem;
},
{
place = (46,162);
type = Stem;
},
{
place = (299,157);
type = Stem;
},
{
horizontal = 1;
place = (497,144);
type = Stem;
}
);
layerId = m003;
name = Bold;
shapes = (
{
closed = 1;
nodes = (
(710,0,l),
(710,160,l),
(270,160,l),
(270,230,l),
(559,230,ls),
(644,230,o),
(710,277,o),
(710,343,cs),
(710,525,ls),
(710,590,o),
(640,640,o),
(554,640,cs),
(226,640,ls),
(142,640,o),
(70,590,o),
(70,525,cs),
(70,437,l),
(270,437,l),
(270,480,l),
(510,480,l),
(510,387,l),
(154,387,ls),
(70,387,o),
(70,312,o),
(70,312,c),
(70,0,l)
);
}
);
width = 780;
}
);
metricLeft = N;
metricRight = N;
unicode = 50;
},
{
glyphname = three;
lastChange = "2025-01-17 21:30:12 +0000";
layers = (
{
hints = (
{
horizontal = 1;
place = (0,150);
type = Stem;
},
{
horizontal = 1;
place = (251,151);
type = Stem;
},
{
horizontal = 1;
place = (499,142);
type = Stem;
},
{
place = (283,160);
type = Stem;
}
);
layerId = m01;
shapes = (
{
closed = 1;
nodes = (
(700,262,ls),
(700,288,o),
(671,322,o),
(646,328,c),
(671,335,o),
(700,364,o),
(700,393,cs),
(700,563,ls),
(700,611,o),
(662,640,o),
(622,640,cs),
(500,640,l),
(500,790,l),
(398,790,l),
(398,640,l),
(321,640,l),
(321,790,l),
(219,790,l),
(219,640,l),
(60,640,l),
(60,496,l),
(540,496,l),
(540,402,l),
(161,402,l),
(161,256,l),
(540,256,l),
(540,144,l),
(60,144,l),
(60,0,l),
(219,0,l),
(219,-148,l),
(321,-148,l),
(321,0,l),
(398,0,l),
(398,-148,l),
(500,-148,l),
(500,0,l),
(622,0,ls),
(662,0,o),
(700,44,o),
(700,90,cs)
);
}
);
width = 780;
},
{
associatedMasterId = m01;
hints = (
{
horizontal = 1;
place = (0,150);
type = Stem;
},
{
horizontal = 1;
place = (251,151);
type = Stem;
},
{
horizontal = 1;
place = (499,142);
type = Stem;
},
{
place = (283,160);
type = Stem;
}
);
layerId = m003;
name = Bold;
shapes = (
{
closed = 1;
nodes = (
(690,262,ls),
(690,288,o),
(661,322,o),
(636,328,c),
(661,335,o),
(690,364,o),
(690,393,cs),
(690,548,l),
(690,605,o),
(633,640,o),
(573,640,c),
(50,640,l),
(50,480,l),
(490,480,l),
(490,408,l),
(151,408,l),
(151,250,l),
(490,250,l),
(490,160,l),
(50,160,l),
(50,0,l),
(573,0,l),
(633,0,o),
(690,53,o),
(690,108,c)
);
}
);
width = 760;
}
);
metricRight = N;
unicode = 51;
},
{
glyphname = four;
lastChange = "2025-01-17 21:30:12 +0000";
layers = (
{
hints = (
{
horizontal = 1;
place = (0,21);
target = up;
type = BottomGhost;
},
{
horizontal = 1;
place = (212,149);
type = Stem;
},
{
horizontal = 1;
place = (641,-20);
target = down;
type = TopGhost;
},
{
place = (45,164);
type = Stem;
},
{
place = (291,164);
type = Stem;
}
);
layerId = m01;
shapes = (
{
closed = 1;
nodes = (
(630,181,l),
(727,181,l),
(727,283,l),
(630,283,l),
(631,360,l),
(727,360,l),
(727,462,l),
(631,462,l),
(631,640,l),
(471,640,l),
(471,356,l),
(247,356,l),
(247,640,l),
(87,640,l),
(87,462,l),
(-10,462,l),
(-10,360,l),
(87,360,l),
(87,292,l),
(87,292,o),
(87,212,o),
(170,212,cs),
(471,212,l),
(471,0,l),
(630,0,l)
);
}
);
width = 747;
},
{
associatedMasterId = m01;
hints = (
{
horizontal = 1;
place = (0,21);
target = up;
type = BottomGhost;
},
{
horizontal = 1;
place = (212,149);
type = Stem;
},
{
horizontal = 1;
place = (641,-20);
target = down;
type = TopGhost;
},
{
place = (45,164);
type = Stem;
},
{
place = (291,164);
type = Stem;
}
);
layerId = m003;
name = Bold;
shapes = (
{
closed = 1;
nodes = (
(690,212,l),
(690,372,l),
(614,372,l),
(614,640,l),
(414,640,l),
(414,372,l),
(250,372,l),
(250,640,l),
(50,640,l),
(50,308,l),
(50,308,o),
(50,212,o),
(175,212,cs),
(414,212,l),
(414,0,l),
(613,0,l),
(613,212,l)
);
}
);
width = 730;
}
);
unicode = 52;
},
{
glyphname = five;
lastChange = "2025-01-17 21:30:12 +0000";
layers = (
{
hints = (
{
horizontal = 1;
place = (0,144);
type = Stem;
},
{
horizontal = 1;
place = (282,140);
type = Stem;
},
{
horizontal = 1;
place = (499,142);
type = Stem;
},
{
place = (46,162);
type = Stem;
},
{
place = (299,157);
type = Stem;
}
);
layerId = m01;
shapes = (
{
closed = 1;
nodes = (
(720,320,ls),
(720,374,o),
(676,413,o),
(619,413,cs),
(240,413,l),
(240,497,l),
(720,497,l),
(720,641,l),
(540,641,l),
(540,790,l),
(438,790,l),
(438,641,l),
(361,641,l),
(361,790,l),
(259,790,l),
(259,641,l),
(80,641,l),
(80,271,l),
(560,271,l),
(560,144,l),
(240,144,l),
(240,201,l),
(80,201,l),
(80,95,ls),
(80,42,o),
(128,0,o),
(184,0,cs),
(259,0,l),
(259,-148,l),
(361,-148,l),
(361,0,l),
(438,0,l),
(438,-148,l),
(540,-148,l),
(540,0,l),
(616,0,ls),
(673,0,o),
(720,42,o),
(720,95,cs)
);
}
);
width = 800;
},
{
associatedMasterId = m01;
layerId = m003;
name = Bold;
shapes = (
{
closed = 1;
nodes = (
(710,309,ls),
(710,374,o),
(644,421,o),
(559,421,cs),
(270,421,l),
(270,481,l),
(710,481,l),
(710,641,l),
(70,641,l),
(70,263,l),
(510,263,l),
(510,160,l),
(270,160,l),
(270,217,l),
(70,217,l),
(70,114,ls),
(70,50,o),
(142,0,o),
(226,0,cs),
(554,0,ls),
(640,0,o),
(710,50,o),
(710,114,cs)
);
}
);
width = 780;
}
);
metricLeft = N;
metricRight = N;
unicode = 53;
},
{
glyphname = six;
lastChange = "2025-01-17 21:30:12 +0000";
layers = (
{
hints = (
{
horizontal = 1;
place = (0,144);
type = Stem;
},
{
horizontal = 1;
place = (269,145);
type = Stem;
},
{
horizontal = 1;
place = (498,143);
type = Stem;
},
{
place = (43,160);
type = Stem;
},
{
place = (300,159);
type = Stem;
}
);
layerId = m01;
shapes = (
{
closed = 1;
nodes = (
(259,1,l),
(259,-148,l),
(361,-148,l),
(361,1,l),
(438,1,l),
(438,-148,l),
(540,-148,l),
(540,1,l),
(617,1,ls),
(675,1,o),
(720,37,o),
(720,93,cs),
(720,344,ls),
(720,374,o),
(702,419,o),
(617,419,cs),
(246,419,l),
(246,497,l),
(699,497,l),
(700,641,l),
(540,641,l),
(540,790,l),
(438,790,l),
(438,641,l),
(361,641,l),
(361,790,l),
(259,790,l),
(259,641,l),
(182,641,l),
(182,641,o),
(80,645,o),
(80,559,cs),
(80,93,ls),
(80,40,o),
(131,1,o),
(182,1,cs)
);
},
{
closed = 1;
nodes = (
(246,275,l),
(554,275,l),
(554,145,l),
(246,145,l)
);
}
);
width = 800;
},
{
associatedMasterId = m01;
layerId = m003;
name = Bold;
shapes = (
{
closed = 1;
nodes = (
(556,1,ls),
(643,1,o),
(710,44,o),
(710,111,cs),
(710,329,ls),
(710,365,o),
(683,419,o),
(556,419,cs),
(270,419,l),
(270,481,l),
(689,481,l),
(690,641,l),
(223,640,l),
(223,640,o),
(70,645,o),
(70,542,cs),
(70,111,ls),
(70,48,o),
(147,1,o),
(223,1,cs)
);
},
{
closed = 1;
nodes = (
(270,259,l),
(510,259,l),
(510,161,l),
(270,161,l)
);
}
);
width = 780;
}
);
metricLeft = N;
metricRight = N;
unicode = 54;
},
{
glyphname = seven;
lastChange = "2025-01-17 21:30:12 +0000";
layers = (
{
hints = (
{
horizontal = 1;
place = (0,21);
target = up;
type = BottomGhost;
},
{
horizontal = 1;
place = (493,148);
type = Stem;
},
{
place = (37,153);
type = Stem;
},
{
place = (306,163);
type = Stem;
}
);
layerId = m01;
shapes = (
{
closed = 1;
nodes = (
(680,0,l),
(680,559,ls),
(680,632,o),
(602,641,o),
(602,641,c),
(490,641,l),
(490,790,l),
(388,790,l),
(388,641,l),
(311,641,l),
(311,790,l),
(209,790,l),
(209,641,l),
(124,641,l),
(124,641,o),
(40,632,o),
(40,559,cs),
(40,401,l),
(200,401,l),
(200,497,l),
(520,497,l),
(520,0,l)
);
}
);
width = 760;
},
{
associatedMasterId = m01;
hints = (
{
horizontal = 1;
place = (0,21);
target = up;
type = BottomGhost;
},
{
horizontal = 1;
place = (493,148);
type = Stem;
},
{
place = (37,153);
type = Stem;
},
{
place = (306,163);
type = Stem;
}
);
layerId = m003;
name = Bold;
shapes = (
{
closed = 1;
nodes = (
(680,0,l),
(680,543,ls),
(680,630,o),
(563,641,o),
(563,641,c),
(166,641,l),
(166,641,o),
(40,630,o),
(40,543,cs),
(40,385,l),
(240,385,l),
(240,481,l),
(480,481,l),
(480,0,l)
);
}
);
width = 750;
}
);
metricRight = N;
unicode = 55;
},
{
glyphname = eight;
lastChange = "2025-01-17 21:30:12 +0000";
layers = (
{
hints = (
{
horizontal = 1;
place = (0,135);
type = Stem;
},
{
horizontal = 1;
place = (511,130);
type = Stem;
},
{
place = (48,156);
type = Stem;
},
{
place = (311,162);
type = Stem;
}
);
layerId = m01;
shapes = (
{
closed = 1;
nodes = (
(720,245,ls),
(720,280,o),
(695,309,o),
(664,326,c),
(696,342,o),
(720,368,o),
(720,398,cs),
(720,554,ls),
(720,633,o),
(619,641,o),
(619,641,c),
(543,641,l),
(543,790,l),
(441,790,l),
(441,641,l),
(364,641,l),
(364,790,l),
(262,790,l),
(262,641,l),
(180,641,l),
(180,641,o),
(80,633,o),
(80,554,cs),
(80,398,ls),
(80,369,o),
(110,341,o),
(132,325,c),
(110,315,o),
(80,279,o),
(80,245,cs),
(80,85,ls),
(80,0,o),
(181,0,o),
(181,0,c),
(262,0,l),
(262,-148,l),
(364,-148,l),
(364,0,l),
(441,0,l),
(441,-148,l),
(543,-148,l),
(543,0,l),
(617,0,l),
(617,0,o),
(720,0,o),
(720,85,cs)
);
},
{
closed = 1;
nodes = (
(576,144,l),
(224,144,l),
(224,254,l),
(576,254,l)
);
},
{
closed = 1;
nodes = (
(576,397,l),
(224,397,l),
(224,497,l),
(576,497,l)
);
}
);
width = 800;
},
{
associatedMasterId = m01;
layerId = m003;
name = Bold;
shapes = (
{
closed = 1;
nodes = (
(710,245,ls),
(710,280,o),
(685,309,o),
(654,326,c),
(686,342,o),
(710,368,o),
(710,398,cs),
(710,537,ls),
(710,631,o),
(559,641,o),
(559,641,c),
(220,641,l),
(220,641,o),
(70,631,o),
(70,537,cs),
(70,398,ls),
(70,369,o),
(100,341,o),
(122,325,c),
(100,315,o),
(70,279,o),
(70,245,cs),
(70,102,ls),
(70,0,o),
(222,0,o),
(222,0,c),
(556,0,l),
(556,0,o),
(710,0,o),
(710,102,cs)
);
},
{
closed = 1;
nodes = (
(510,160,l),
(270,160,l),
(270,247,l),
(510,247,l)
);
},
{
closed = 1;
nodes = (
(510,404,l),
(270,404,l),
(270,481,l),
(510,481,l)
);
}
);
width = 780;
}
);
metricLeft = N;
metricRight = N;
unicode = 56;
},
{
glyphname = nine;
lastChange = "2025-01-17 21:30:12 +0000";
layers = (
{
hints = (
{
horizontal = 1;
place = (0,148);
type = Stem;
},
{
horizontal = 1;
place = (212,150);
type = Stem;
},
{
horizontal = 1;
place = (503,138);
type = Stem;
},
{
place = (46,158);
type = Stem;
},
{
place = (304,158);
type = Stem;
}
);
layerId = m01;
shapes = (
{
closed = 1;
nodes = (
(255,0,l),
(255,-148,l),
(357,-148,l),
(357,0,l),
(434,0,l),
(434,-148,l),
(536,-148,l),
(536,0,l),
(618,0,l),
(618,0,o),
(720,-4,o),
(720,82,cs),
(720,548,ls),
(720,601,o),
(669,640,o),
(618,640,cs),
(536,640,l),
(536,790,l),
(434,790,l),
(434,640,l),
(357,640,l),
(357,790,l),
(255,790,l),
(255,640,l),
(183,640,ls),
(125,640,o),
(80,604,o),
(80,548,cs),
(80,297,ls),
(80,267,o),
(98,222,o),
(183,222,cs),
(554,222,l),
(554,144,l),
(101,144,l),
(100,0,l)
);
},
{
closed = 1;
nodes = (
(246,496,l),
(554,496,l),
(554,366,l),
(246,366,l)
);
}
);
width = 800;
},
{
associatedMasterId = m01;
layerId = m003;
name = Bold;
shapes = (
{
closed = 1;
nodes = (
(557,1,l),
(557,1,o),
(710,-4,o),
(710,99,cs),
(710,530,ls),
(710,593,o),
(634,640,o),
(557,640,cs),
(225,640,ls),
(138,640,o),
(70,597,o),
(70,530,cs),
(70,297,ls),
(70,267,o),
(88,222,o),
(173,222,cs),
(510,222,l),
(510,160,l),
(91,160,l),
(90,0,l)
);
},
{
closed = 1;
nodes = (
(270,480,l),
(510,480,l),
(510,382,l),
(270,382,l)
);
}
);
width = 780;
}
);
metricLeft = N;
metricRight = N;
unicode = 57;
},
{
glyphname = period;
lastChange = "2025-01-17 21:30:12 +0000";
layers = (
{
hints = (
{
horizontal = 1;
place = (0,21);
target = up;
type = BottomGhost;
},
{
horizontal = 1;
place = (157,-20);
target = down;
type = TopGhost;
},
{
place = (33,154);
type = Stem;
}
);
layerId = m01;
shapes = (
{
closed = 1;
nodes = (
(214,0,l),
(214,154,l),
(60,154,l),
(60,0,l)
);
}
);
width = 274;
},
{
associatedMasterId = m01;
hints = (
{
horizontal = 1;
place = (0,21);
target = up;
type = BottomGhost;
},
{
horizontal = 1;
place = (157,-20);
target = down;
type = TopGhost;
},
{
place = (33,154);
type = Stem;
}
);
layerId = m003;
name = Bold;
shapes = (
{
closed = 1;
nodes = (
(244,0,l),
(244,177,l),
(50,177,l),
(50,0,l)
);
}
);
width = 294;
}
);
unicode = 46;
},
{
glyphname = comma;
lastChange = "2025-01-17 21:30:12 +0000";
layers = (
{
hints = (
{
horizontal = 1;
place = (-105,21);
target = up;
type = BottomGhost;
},
{
horizontal = 1;
place = (157,-20);
target = down;
type = TopGhost;
}
);
layerId = m01;
shapes = (
{
closed = 1;
nodes = (
(241,157,l),
(85,157,l),
(10,-105,l),
(155,-105,l)
);
}
);
width = 281;
},
{
associatedMasterId = m01;
hints = (
{
horizontal = 1;
place = (-105,21);
target = up;
type = BottomGhost;
},
{
horizontal = 1;
place = (157,-20);
target = down;
type = TopGhost;
}
);
layerId = m003;
name = Bold;
shapes = (
{
closed = 1;
nodes = (
(281,157,l),
(85,157,l),
(10,-105,l),
(195,-105,l)
);
}
);
width = 311;
}
);
unicode = 44;
},
{
glyphname = colon;
lastChange = "2025-01-17 21:30:12 +0000";
layers = (
{
hints = (
{
horizontal = 1;
place = (0,21);
target = up;
type = BottomGhost;
},
{
horizontal = 1;
place = (502,-20);
target = down;
type = TopGhost;
},
{
place = (33,154);
type = Stem;
}
);
layerId = m01;
shapes = (
{
closed = 1;
nodes = (
(187,0,l),
(187,154,l),
(33,154,l),
(33,0,l)
);
},
{
closed = 1;
nodes = (
(187,348,l),
(187,502,l),
(33,502,l),
(33,348,l)
);
}
);
width = 229;
},
{
associatedMasterId = m01;
hints = (
{
horizontal = 1;
place = (0,21);
target = up;
type = BottomGhost;
},
{
horizontal = 1;
place = (502,-20);
target = down;
type = TopGhost;
},
{
place = (33,154);
type = Stem;
}
);
layerId = m003;
name = Bold;
shapes = (
{
closed = 1;
nodes = (
(227,0,l),
(227,174,l),
(33,174,l),
(33,0,l)
);
},
{
closed = 1;
nodes = (
(227,328,l),
(227,502,l),
(33,502,l),
(33,328,l)
);
}
);
width = 229;
}
);
unicode = 58;
},
{
glyphname = semicolon;
lastChange = "2025-01-17 21:30:12 +0000";
layers = (
{
hints = (
{
horizontal = 1;
place = (-105,21);
target = up;
type = BottomGhost;
},
{
horizontal = 1;
place = (504,-20);
target = down;
type = TopGhost;
},
{
place = (31,158);
type = Stem;
}
);
layerId = m01;
shapes = (
{
closed = 1;
nodes = (
(114,-105,l),
(200,157,l),
(44,157,l),
(-31,-105,l)
);
},
{
closed = 1;
nodes = (
(185,350,l),
(185,504,l),
(31,504,l),
(31,350,l)
);
}
);
width = 233;
},
{
associatedMasterId = m01;
hints = (
{
horizontal = 1;
place = (-105,21);
target = up;
type = BottomGhost;
},
{
horizontal = 1;
place = (504,-20);
target = down;
type = TopGhost;
},
{
place = (31,158);
type = Stem;
}
);
layerId = m003;
name = Bold;
shapes = (
{
closed = 1;
nodes = (
(195,-105,l),
(281,157,l),
(85,157,l),
(10,-105,l)
);
},
{
closed = 1;
nodes = (
(268,328,l),
(268,502,l),
(74,502,l),
(74,328,l)
);
}
);
width = 321;
}
);
unicode = 59;
},
{
glyphname = exclam;
lastChange = "2025-01-17 21:30:12 +0000";
layers = (
{
hints = (
{
horizontal = 1;
place = (0,21);
target = up;
type = BottomGhost;
},
{
horizontal = 1;
place = (646,-20);
target = down;
type = TopGhost;
},
{
place = (45,159);
type = Stem;
}
);
layerId = m01;
shapes = (
{
closed = 1;
nodes = (
(240,224,l),
(240,640,l),
(80,640,l),
(80,224,l)
);
},
{
closed = 1;
nodes = (
(240,0,l),
(240,160,l),
(80,160,l),
(80,0,l)
);
}
);
width = 320;
},
{
associatedMasterId = m01;
hints = (
{
horizontal = 1;
place = (0,21);
target = up;
type = BottomGhost;
},
{
horizontal = 1;
place = (646,-20);
target = down;
type = TopGhost;
},
{
place = (45,159);
type = Stem;
}
);
layerId = m003;
name = Bold;
shapes = (
{
closed = 1;
nodes = (
(270,234,l),
(270,641,l),
(70,641,l),
(70,234,l)
);
},
{
closed = 1;
nodes = (
(270,0,l),
(270,160,l),
(70,160,l),
(70,0,l)
);
}
);
width = 340;
}
);
metricLeft = N;
metricRight = N;
unicode = 33;
},
{
glyphname = question;
lastChange = "2025-01-17 21:30:12 +0000";
layers = (
{
hints = (
{
horizontal = 1;
place = (0,142);
type = Stem;
},
{
horizontal = 1;
place = (276,137);
type = Stem;
},
{
horizontal = 1;
place = (503,138);
type = Stem;
},
{
place = (124,157);
type = Stem;
},
{
place = (303,163);
type = Stem;
}
);
layerId = m01;
shapes = (
{
closed = 1;
nodes = (
(408,199,l),
(408,276,l),
(632,276,ls),
(656,276,o),
(700,322,o),
(700,356,cs),
(700,548,ls),
(700,611,o),
(646,640,o),
(617,640,cs),
(60,640,l),
(60,496,l),
(546,496,l),
(546,418,l),
(322,418,ls),
(286,418,o),
(248,398,o),
(248,344,cs),
(248,199,l)
);
},
{
closed = 1;
nodes = (
(408,0,l),
(408,142,l),
(248,142,l),
(248,0,l)
);
}
);
width = 760;
},
{
associatedMasterId = m01;
layerId = m003;
name = Bold;
shapes = (
{
closed = 1;
nodes = (
(438,219,l),
(438,260,l),
(622,260,ls),
(646,260,o),
(690,306,o),
(690,340,cs),
(690,548,ls),
(690,611,o),
(636,640,o),
(607,640,cs),
(50,640,l),
(50,480,l),
(496,480,l),
(496,413,l),
(312,413,ls),
(276,413,o),
(238,393,o),
(238,339,cs),
(238,219,l)
);
},
{
closed = 1;
nodes = (
(438,0,l),
(438,160,l),
(238,160,l),
(238,0,l)
);
}
);
width = 740;
}
);
unicode = 63;
},
{
glyphname = asterisk;
lastChange = "2025-01-17 21:30:12 +0000";
layers = (
{
hints = (
{
horizontal = 1;
place = (280,21);
target = up;
type = BottomGhost;
},
{
horizontal = 1;
place = (641,-20);
target = down;
type = TopGhost;
}
);
layerId = m01;
shapes = (
{
closed = 1;
nodes = (
(405,455,l),
(371,575,l),
(256,522,l),
(249,527,l),
(274,641,l),
(146,641,l),
(168,527,l),
(160,523,l),
(51,579,l),
(12,462,l),
(46,458,o),
(99,447,o),
(136,441,c),
(139,430,l),
(45,354,l),
(154,284,l),
(208,380,l),
(256,280,l),
(367,348,l),
(274,431,l),
(276,441,l)
);
}
);
width = 443;
},
{
associatedMasterId = m01;
hints = (
{
horizontal = 1;
place = (280,21);
target = up;
type = BottomGhost;
},
{
horizontal = 1;
place = (641,-20);
target = down;
type = TopGhost;
}
);
layerId = m003;
name = Bold;
shapes = (
{
closed = 1;
nodes = (
(405,455,l),
(371,575,l),
(256,522,l),
(249,527,l),
(274,641,l),
(146,641,l),
(168,527,l),
(160,523,l),
(51,579,l),
(12,462,l),
(46,458,o),
(99,447,o),
(136,441,c),
(139,430,l),
(45,354,l),
(154,284,l),
(208,380,l),
(256,280,l),
(367,348,l),
(274,431,l),
(276,441,l)
);
}
);
width = 443;
}
);
unicode = 42;
},
{
glyphname = numbersign;
lastChange = "2025-01-17 21:30:12 +0000";
layers = (
{
hints = (
{
horizontal = 1;
place = (0,21);
target = up;
type = BottomGhost;
},
{
horizontal = 1;
place = (181,111);
type = Stem;
},
{
horizontal = 1;
place = (373,112);
type = Stem;
},
{
horizontal = 1;
place = (641,-20);
target = down;
type = TopGhost;
}
);
layerId = m01;
shapes = (
{
closed = 1;
nodes = (
(540,373,l),
(540,485,l),
(479,485,l),
(499,641,l),
(379,641,l),
(359,485,l),
(267,485,l),
(287,641,l),
(167,641,l),
(147,485,l),
(56,485,l),
(56,373,l),
(131,373,l),
(121,292,l),
(29,292,l),
(29,181,l),
(104,181,l),
(80,0,l),
(200,0,l),
(224,181,l),
(316,181,l),
(292,0,l),
(412,0,l),
(436,181,l),
(514,181,l),
(514,292,l),
(453,292,l),
(463,373,l)
);
},
{
closed = 1;
nodes = (
(343,373,l),
(333,292,l),
(241,292,l),
(251,373,l)
);
}
);
width = 580;
},
{
associatedMasterId = m01;
hints = (
{
horizontal = 1;
place = (0,21);
target = up;
type = BottomGhost;
},
{
horizontal = 1;
place = (181,111);
type = Stem;
},
{
horizontal = 1;
place = (373,112);
type = Stem;
},
{
horizontal = 1;
place = (641,-20);
target = down;
type = TopGhost;
}
);
layerId = m003;
name = Bold;
shapes = (
{
closed = 1;
nodes = (
(540,373,l),
(540,485,l),
(479,485,l),
(499,641,l),
(379,641,l),
(359,485,l),
(267,485,l),
(287,641,l),
(167,641,l),
(147,485,l),
(56,485,l),
(56,373,l),
(131,373,l),
(121,292,l),
(29,292,l),
(29,181,l),
(104,181,l),
(80,0,l),
(200,0,l),
(224,181,l),
(316,181,l),
(292,0,l),
(412,0,l),
(436,181,l),
(514,181,l),
(514,292,l),
(453,292,l),
(463,373,l)
);
},
{
closed = 1;
nodes = (
(343,373,l),
(333,292,l),
(241,292,l),
(251,373,l)
);
}
);
width = 580;
}
);
unicode = 35;
},
{
glyphname = slash;
lastChange = "2025-01-17 21:30:12 +0000";
layers = (
{
hints = (
{
horizontal = 1;
place = (0,21);
target = up;
type = BottomGhost;
},
{
horizontal = 1;
place = (641,-20);
target = down;
type = TopGhost;
}
);
layerId = m01;
shapes = (
{
closed = 1;
nodes = (
(388,641,l),
(241,641,l),
(24,0,l),
(170,0,l)
);
}
);
width = 398;
},
{
associatedMasterId = m01;
hints = (
{
horizontal = 1;
place = (0,21);
target = up;
type = BottomGhost;
},
{
horizontal = 1;
place = (641,-20);
target = down;
type = TopGhost;
}
);
layerId = m003;
name = Bold;
shapes = (
{
closed = 1;
nodes = (
(388,641,l),
(241,641,l),
(24,0,l),
(170,0,l)
);
}
);
width = 398;
}
);
unicode = 47;
},
{
glyphname = backslash;
lastChange = "2025-01-17 21:30:12 +0000";
layers = (
{
hints = (
{
horizontal = 1;
place = (0,21);
target = up;
type = BottomGhost;
},
{
horizontal = 1;
place = (641,-20);
target = down;
type = TopGhost;
}
);
layerId = m01;
shapes = (
{
closed = 1;
nodes = (
(242,0,l),
(388,0,l),
(171,641,l),
(24,641,l)
);
}
);
width = 409;
},
{
associatedMasterId = m01;
hints = (
{
horizontal = 1;
place = (0,21);
target = up;
type = BottomGhost;
},
{
horizontal = 1;
place = (641,-20);
target = down;
type = TopGhost;
}
);
layerId = m003;
name = Bold;
shapes = (
{
closed = 1;
nodes = (
(242,0,l),
(388,0,l),
(171,641,l),
(24,641,l)
);
}
);
width = 409;
}
);
unicode = 92;
},
{
glyphname = hyphen;
lastChange = "2025-01-17 21:30:12 +0000";
layers = (
{
hints = (
{
horizontal = 1;
place = (201,133);
type = Stem;
}
);
layerId = m01;
shapes = (
{
closed = 1;
nodes = (
(345,282,l),
(30,283,l),
(30,191,l),
(345,190,l)
);
}
);
width = 375;
},
{
associatedMasterId = m01;
layerId = m003;
name = Bold;
shapes = (
{
closed = 1;
nodes = (
(375,174,l),
(375,334,l),
(20,334,l),
(20,174,l)
);
}
);
width = 395;
}
);
unicode = 45;
},
{
glyphname = parenleft;
lastChange = "2025-01-17 21:30:12 +0000";
layers = (
{
hints = (
{
horizontal = 1;
place = (-42,117);
type = Stem;
},
{
horizontal = 1;
place = (566,118);
type = Stem;
},
{
place = (46,152);
type = Stem;
}
);
layerId = m01;
shapes = (
{
closed = 1;
nodes = (
(276,-42,l),
(276,75,l),
(198,75,l),
(198,566,l),
(276,566,l),
(276,684,l),
(111,684,ls),
(46,684,o),
(46,583,o),
(46,583,c),
(46,58,l),
(46,58,o),
(46,-42,o),
(111,-42,cs)
);
}
);
width = 286;
},
{
associatedMasterId = m01;
hints = (
{
horizontal = 1;
place = (-42,117);
type = Stem;
},
{
horizontal = 1;
place = (566,118);
type = Stem;
},
{
place = (46,152);
type = Stem;
}
);
layerId = m003;
name = Bold;
shapes = (
{
closed = 1;
nodes = (
(276,-42,l),
(276,75,l),
(198,75,l),
(198,566,l),
(276,566,l),
(276,684,l),
(111,684,ls),
(46,684,o),
(46,583,o),
(46,583,c),
(46,58,l),
(46,58,o),
(46,-42,o),
(111,-42,cs)
);
}
);
width = 286;
}
);
unicode = 40;
},
{
glyphname = parenright;
lastChange = "2025-01-17 21:30:12 +0000";
layers = (
{
hints = (
{
horizontal = 1;
place = (-42,117);
type = Stem;
},
{
horizontal = 1;
place = (566,118);
type = Stem;
},
{
place = (103,151);
type = Stem;
}
);
layerId = m01;
shapes = (
{
closed = 1;
nodes = (
(254,583,l),
(254,583,o),
(254,684,o),
(181,684,cs),
(23,684,l),
(23,566,l),
(103,566,l),
(103,75,l),
(23,75,l),
(23,-42,l),
(181,-42,ls),
(254,-42,o),
(254,58,o),
(254,58,c)
);
}
);
width = 286;
},
{
associatedMasterId = m01;
hints = (
{
horizontal = 1;
place = (-42,117);
type = Stem;
},
{
horizontal = 1;
place = (566,118);
type = Stem;
},
{
place = (103,151);
type = Stem;
}
);
layerId = m003;
name = Bold;
shapes = (
{
closed = 1;
nodes = (
(254,583,l),
(254,583,o),
(254,684,o),
(181,684,cs),
(23,684,l),
(23,566,l),
(103,566,l),
(103,75,l),
(23,75,l),
(23,-42,l),
(181,-42,ls),
(254,-42,o),
(254,58,o),
(254,58,c)
);
}
);
width = 286;
}
);
unicode = 41;
},
{
glyphname = braceleft;
lastChange = "2025-01-17 21:30:12 +0000";
layers = (
{
hints = (
{
horizontal = 1;
place = (-41,112);
type = Stem;
},
{
horizontal = 1;
place = (567,112);
type = Stem;
},
{
place = (88,152);
type = Stem;
}
);
layerId = m01;
shapes = (
{
closed = 1;
nodes = (
(318,-41,l),
(318,71,l),
(240,71,l),
(240,567,l),
(318,567,l),
(318,679,l),
(163,679,ls),
(98,679,o),
(88,592,o),
(88,592,c),
(88,357,l),
(0,357,l),
(0,246,l),
(88,246,l),
(88,46,l),
(88,46,o),
(98,-41,o),
(163,-41,cs)
);
}
);
width = 359;
},
{
associatedMasterId = m01;
hints = (
{
horizontal = 1;
place = (-41,112);
type = Stem;
},
{
horizontal = 1;
place = (567,112);
type = Stem;
},
{
place = (88,152);
type = Stem;
}
);
layerId = m003;
name = Bold;
shapes = (
{
closed = 1;
nodes = (
(318,-41,l),
(318,71,l),
(240,71,l),
(240,567,l),
(318,567,l),
(318,679,l),
(163,679,ls),
(98,679,o),
(88,592,o),
(88,592,c),
(88,357,l),
(0,357,l),
(0,246,l),
(88,246,l),
(88,46,l),
(88,46,o),
(98,-41,o),
(163,-41,cs)
);
}
);
width = 359;
}
);
unicode = 123;
},
{
glyphname = braceright;
lastChange = "2025-01-17 21:30:12 +0000";
layers = (
{
hints = (
{
horizontal = 1;
place = (-41,112);
type = Stem;
},
{
horizontal = 1;
place = (567,112);
type = Stem;
},
{
place = (99,152);
type = Stem;
}
);
layerId = m01;
shapes = (
{
closed = 1;
nodes = (
(179,-41,ls),
(244,-41,o),
(251,46,o),
(251,46,c),
(251,246,l),
(338,246,l),
(338,357,l),
(251,357,l),
(251,592,l),
(251,592,o),
(244,679,o),
(179,679,cs),
(20,679,l),
(20,567,l),
(99,567,l),
(99,71,l),
(20,71,l),
(20,-41,l)
);
}
);
width = 359;
},
{
associatedMasterId = m01;
hints = (
{
horizontal = 1;
place = (-41,112);
type = Stem;
},
{
horizontal = 1;
place = (567,112);
type = Stem;
},
{
place = (99,152);
type = Stem;
}
);
layerId = m003;
name = Bold;
shapes = (
{
closed = 1;
nodes = (
(179,-41,ls),
(244,-41,o),
(251,46,o),
(251,46,c),
(251,246,l),
(338,246,l),
(338,357,l),
(251,357,l),
(251,592,l),
(251,592,o),
(244,679,o),
(179,679,cs),
(20,679,l),
(20,567,l),
(99,567,l),
(99,71,l),
(20,71,l),
(20,-41,l)
);
}
);
width = 359;
}
);
unicode = 125;
},
{
glyphname = bracketleft;
lastChange = "2025-01-17 21:30:12 +0000";
layers = (
{
hints = (
{
horizontal = 1;
place = (-14,163);
type = Stem;
},
{
horizontal = 1;
place = (510,151);
type = Stem;
},
{
place = (28,167);
type = Stem;
}
);
layerId = m01;
shapes = (
{
closed = 1;
nodes = (
(295,149,l),
(195,149,l),
(195,510,l),
(295,510,l),
(294,661,l),
(28,661,l),
(28,-14,l),
(294,-14,l)
);
}
);
width = 328;
},
{
associatedMasterId = m01;
hints = (
{
horizontal = 1;
place = (-14,163);
type = Stem;
},
{
horizontal = 1;
place = (510,151);
type = Stem;
},
{
place = (28,167);
type = Stem;
}
);
layerId = m003;
name = Bold;
shapes = (
{
closed = 1;
nodes = (
(295,149,l),
(195,149,l),
(195,510,l),
(295,510,l),
(294,661,l),
(28,661,l),
(28,-14,l),
(294,-14,l)
);
}
);
width = 328;
}
);
unicode = 91;
},
{
glyphname = bracketright;
lastChange = "2025-01-17 21:30:12 +0000";
layers = (
{
hints = (
{
horizontal = 1;
place = (-14,163);
type = Stem;
},
{
horizontal = 1;
place = (510,151);
type = Stem;
},
{
place = (127,167);
type = Stem;
}
);
layerId = m01;
shapes = (
{
closed = 1;
nodes = (
(28,-14,l),
(294,-14,l),
(294,661,l),
(28,661,l),
(27,510,l),
(127,510,l),
(127,149,l),
(27,149,l)
);
}
);
width = 328;
},
{
associatedMasterId = m01;
hints = (
{
horizontal = 1;
place = (-14,163);
type = Stem;
},
{
horizontal = 1;
place = (510,151);
type = Stem;
},
{
place = (127,167);
type = Stem;
}
);
layerId = m003;
name = Bold;
shapes = (
{
closed = 1;
nodes = (
(28,-14,l),
(294,-14,l),
(294,661,l),
(28,661,l),
(27,510,l),
(127,510,l),
(127,149,l),
(27,149,l)
);
}
);
width = 328;
}
);
unicode = 93;
},
{
glyphname = quotedblleft;
lastChange = "2025-01-17 21:30:12 +0000";
layers = (
{
hints = (
{
horizontal = 1;
place = (381,21);
target = up;
type = BottomGhost;
},
{
horizontal = 1;
place = (643,-20);
target = down;
type = TopGhost;
}
);
layerId = m01;
shapes = (
{
closed = 1;
nodes = (
(284,381,l),
(429,381,l),
(354,643,l),
(198,643,l)
);
},
{
closed = 1;
nodes = (
(90,381,l),
(235,381,l),
(160,643,l),
(4,643,l)
);
}
);
width = 429;
},
{
associatedMasterId = m01;
hints = (
{
horizontal = 1;
place = (381,21);
target = up;
type = BottomGhost;
},
{
horizontal = 1;
place = (643,-20);
target = down;
type = TopGhost;
}
);
layerId = m003;
name = Bold;
shapes = (
{
closed = 1;
nodes = (
(284,381,l),
(429,381,l),
(354,643,l),
(198,643,l)
);
},
{
closed = 1;
nodes = (
(90,381,l),
(235,381,l),
(160,643,l),
(4,643,l)
);
}
);
width = 429;
}
);
unicode = 8220;
},
{
glyphname = quotedblright;
lastChange = "2025-01-17 21:30:12 +0000";
layers = (
{
hints = (
{
horizontal = 1;
place = (381,21);
target = up;
type = BottomGhost;
},
{
horizontal = 1;
place = (643,-20);
target = down;
type = TopGhost;
}
);
layerId = m01;
shapes = (
{
closed = 1;
nodes = (
(451,643,l),
(295,643,l),
(220,381,l),
(365,381,l)
);
},
{
closed = 1;
nodes = (
(230,643,l),
(74,643,l),
(-1,381,l),
(144,381,l)
);
}
);
width = 453;
},
{
associatedMasterId = m01;
hints = (
{
horizontal = 1;
place = (381,21);
target = up;
type = BottomGhost;
},
{
horizontal = 1;
place = (643,-20);
target = down;
type = TopGhost;
}
);
layerId = m003;
name = Bold;
shapes = (
{
closed = 1;
nodes = (
(451,643,l),
(295,643,l),
(220,381,l),
(365,381,l)
);
},
{
closed = 1;
nodes = (
(230,643,l),
(74,643,l),
(-1,381,l),
(144,381,l)
);
}
);
width = 453;
}
);
unicode = 8221;
},
{
glyphname = quoteleft;
lastChange = "2025-01-17 21:30:12 +0000";
layers = (
{
hints = (
{
horizontal = 1;
place = (381,21);
target = up;
type = BottomGhost;
},
{
horizontal = 1;
place = (643,-20);
target = down;
type = TopGhost;
}
);
layerId = m01;
shapes = (
{
closed = 1;
nodes = (
(90,381,l),
(235,381,l),
(160,643,l),
(4,643,l)
);
}
);
width = 241;
},
{
associatedMasterId = m01;
hints = (
{
horizontal = 1;
place = (381,21);
target = up;
type = BottomGhost;
},
{
horizontal = 1;
place = (643,-20);
target = down;
type = TopGhost;
}
);
layerId = m003;
name = Bold;
shapes = (
{
closed = 1;
nodes = (
(90,381,l),
(235,381,l),
(160,643,l),
(4,643,l)
);
}
);
width = 241;
}
);
unicode = 8216;
},
{
glyphname = quoteright;
lastChange = "2025-01-17 21:30:12 +0000";
layers = (
{
hints = (
{
horizontal = 1;
place = (381,21);
target = up;
type = BottomGhost;
},
{
horizontal = 1;
place = (643,-20);
target = down;
type = TopGhost;
}
);
layerId = m01;
shapes = (
{
closed = 1;
nodes = (
(230,643,l),
(74,643,l),
(-1,381,l),
(144,381,l)
);
}
);
width = 232;
},
{
associatedMasterId = m01;
hints = (
{
horizontal = 1;
place = (381,21);
target = up;
type = BottomGhost;
},
{
horizontal = 1;
place = (643,-20);
target = down;
type = TopGhost;
}
);
layerId = m003;
name = Bold;
shapes = (
{
closed = 1;
nodes = (
(230,643,l),
(74,643,l),
(-1,381,l),
(144,381,l)
);
}
);
width = 232;
}
);
unicode = 8217;
},
{
glyphname = quotedbl;
lastChange = "2025-01-17 21:30:12 +0000";
layers = (
{
hints = (
{
horizontal = 1;
place = (338,21);
target = up;
type = BottomGhost;
},
{
horizontal = 1;
place = (641,-20);
target = down;
type = TopGhost;
},
{
place = (47,162);
type = Stem;
},
{
place = (287,162);
type = Stem;
}
);
layerId = m01;
shapes = (
{
closed = 1;
nodes = (
(449,338,l),
(449,641,l),
(287,641,l),
(287,338,l)
);
},
{
closed = 1;
nodes = (
(209,338,l),
(209,641,l),
(47,641,l),
(47,338,l)
);
}
);
width = 500;
},
{
associatedMasterId = m01;
hints = (
{
horizontal = 1;
place = (338,21);
target = up;
type = BottomGhost;
},
{
horizontal = 1;
place = (641,-20);
target = down;
type = TopGhost;
},
{
place = (47,162);
type = Stem;
},
{
place = (287,162);
type = Stem;
}
);
layerId = m003;
name = Bold;
shapes = (
{
closed = 1;
nodes = (
(449,338,l),
(449,641,l),
(287,641,l),
(287,338,l)
);
},
{
closed = 1;
nodes = (
(209,338,l),
(209,641,l),
(47,641,l),
(47,338,l)
);
}
);
width = 500;
}
);
unicode = 34;
},
{
glyphname = quotesingle;
lastChange = "2025-01-17 21:30:12 +0000";
layers = (
{
hints = (
{
horizontal = 1;
place = (338,21);
target = up;
type = BottomGhost;
},
{
horizontal = 1;
place = (641,-20);
target = down;
type = TopGhost;
},
{
place = (39,178);
type = Stem;
}
);
layerId = m01;
shapes = (
{
closed = 1;
nodes = (
(217,338,l),
(217,641,l),
(39,641,l),
(39,338,l)
);
}
);
width = 257;
},
{
associatedMasterId = m01;
hints = (
{
horizontal = 1;
place = (338,21);
target = up;
type = BottomGhost;
},
{
horizontal = 1;
place = (641,-20);
target = down;
type = TopGhost;
},
{
place = (39,178);
type = Stem;
}
);
layerId = m003;
name = Bold;
shapes = (
{
closed = 1;
nodes = (
(217,338,l),
(217,641,l),
(39,641,l),
(39,338,l)
);
}
);
width = 257;
}
);
unicode = 39;
},
{
glyphname = at;
lastChange = "2025-01-17 21:30:12 +0000";
layers = (
{
hints = (
{
horizontal = 1;
place = (-8,97);
type = Stem;
},
{
horizontal = 1;
place = (133,92);
type = Stem;
},
{
horizontal = 1;
place = (305,86);
type = Stem;
},
{
horizontal = 1;
place = (423,93);
type = Stem;
},
{
horizontal = 1;
place = (573,102);
type = Stem;
},
{
place = (40,106);
type = Stem;
},
{
place = (194,103);
type = Stem;
},
{
place = (369,108);
type = Stem;
},
{
place = (537,111);
type = Stem;
}
);
layerId = m01;
shapes = (
{
closed = 1;
nodes = (
(146,89,l),
(146,573,l),
(537,573,l),
(537,222,l),
(477,222,l),
(477,458,ls),
(477,496,o),
(448,516,o),
(410,516,cs),
(209,516,l),
(209,423,l),
(372,423,l),
(372,391,l),
(253,391,ls),
(217,391,o),
(194,371,o),
(194,333,cs),
(194,201,ls),
(194,163,o),
(230,134,o),
(271,134,cs),
(571,133,ls),
(608,133,o),
(648,160,o),
(648,207,cs),
(648,581,ls),
(648,634,o),
(603,675,o),
(548,675,cs),
(140,675,ls),
(85,675,o),
(40,634,o),
(40,581,cs),
(40,84,ls),
(40,31,o),
(79,-8,o),
(134,-8,cs),
(554,-8,ls),
(609,-8,o),
(635,28,o),
(636,89,c)
);
},
{
closed = 1;
nodes = (
(369,225,l),
(297,225,l),
(297,305,l),
(369,305,l)
);
}
);
width = 688;
},
{
associatedMasterId = m01;
hints = (
{
horizontal = 1;
place = (-8,97);
type = Stem;
},
{
horizontal = 1;
place = (133,92);
type = Stem;
},
{
horizontal = 1;
place = (305,86);
type = Stem;
},
{
horizontal = 1;
place = (423,93);
type = Stem;
},
{
horizontal = 1;
place = (573,102);
type = Stem;
},
{
place = (40,106);
type = Stem;
},
{
place = (194,103);
type = Stem;
},
{
place = (369,108);
type = Stem;
},
{
place = (537,111);
type = Stem;
}
);
layerId = m003;
name = Bold;
shapes = (
{
closed = 1;
nodes = (
(146,89,l),
(146,573,l),
(537,573,l),
(537,222,l),
(477,222,l),
(477,458,ls),
(477,496,o),
(448,516,o),
(410,516,cs),
(209,516,l),
(209,423,l),
(372,423,l),
(372,391,l),
(253,391,ls),
(217,391,o),
(194,371,o),
(194,333,cs),
(194,201,ls),
(194,163,o),
(230,134,o),
(271,134,cs),
(571,133,ls),
(608,133,o),
(648,160,o),
(648,207,cs),
(648,581,ls),
(648,634,o),
(603,675,o),
(548,675,cs),
(140,675,ls),
(85,675,o),
(40,634,o),
(40,581,cs),
(40,84,ls),
(40,31,o),
(79,-8,o),
(134,-8,cs),
(554,-8,ls),
(609,-8,o),
(635,28,o),
(636,89,c)
);
},
{
closed = 1;
nodes = (
(369,225,l),
(297,225,l),
(297,305,l),
(369,305,l)
);
}
);
width = 688;
}
);
unicode = 64;
},
{
glyphname = bar;
lastChange = "2025-01-17 21:30:12 +0000";
layers = (
{
layerId = m01;
shapes = (
{
closed = 1;
nodes = (
(331,-148,l),
(331,790,l),
(239,790,l),
(239,-148,l)
);
},
{
closed = 1;
nodes = (
(162,-148,l),
(162,790,l),
(70,790,l),
(70,-148,l)
);
}
);
width = 401;
}
);
unicode = 124;
},
{
glyphname = Euro;
lastChange = "2025-01-17 21:30:12 +0000";
layers = (
{
layerId = m01;
shapes = (
{
closed = 1;
nodes = (
(628,199,l),
(470,199,l),
(470,144,l),
(261,144,l),
(261,234,l),
(354,234,l),
(368,297,l),
(261,297,l),
(261,353,l),
(354,353,l),
(368,417,l),
(261,417,l),
(261,497,l),
(470,497,l),
(470,448,l),
(628,448,l),
(628,547,ls),
(628,602,o),
(584,641,o),
(527,641,cs),
(202,641,ls),
(146,641,o),
(102,602,o),
(102,547,cs),
(102,417,l),
(34,417,l),
(20,353,l),
(102,353,l),
(102,297,l),
(34,297,l),
(20,234,l),
(102,234,l),
(102,95,ls),
(102,42,o),
(149,0,o),
(205,0,cs),
(527,0,ls),
(584,0,o),
(628,39,o),
(628,94,cs)
);
}
);
width = 688;
},
{
associatedMasterId = m01;
hints = (
{
horizontal = 1;
place = (0,199);
type = Stem;
},
{
horizontal = 1;
place = (234,63);
type = Stem;
},
{
horizontal = 1;
place = (353,64);
type = Stem;
},
{
horizontal = 1;
place = (448,193);
type = Stem;
},
{
place = (52,159);
type = Stem;
},
{
place = (300,158);
type = Stem;
},
{
horizontal = 1;
place = (0,144);
type = Stem;
},
{
horizontal = 1;
place = (497,144);
type = Stem;
}
);
layerId = m003;
name = Bold;
shapes = (
{
closed = 1;
nodes = (
(458,199,l),
(300,199,l),
(300,144,l),
(211,144,l),
(211,234,l),
(254,234,l),
(268,297,l),
(211,297,l),
(211,353,l),
(254,353,l),
(268,417,l),
(211,417,l),
(211,497,l),
(300,497,l),
(300,448,l),
(458,448,l),
(458,547,ls),
(458,602,o),
(414,641,o),
(357,641,cs),
(152,641,ls),
(96,641,o),
(52,602,o),
(52,547,cs),
(52,417,l),
(14,417,l),
(0,353,l),
(52,353,l),
(52,297,l),
(14,297,l),
(0,234,l),
(52,234,l),
(52,95,ls),
(52,42,o),
(99,0,o),
(155,0,cs),
(357,0,ls),
(414,0,o),
(458,39,o),
(458,94,cs)
);
}
);
width = 505;
}
);
unicode = 8364;
},
{
glyphname = bitcoin;
lastChange = "2025-01-17 21:30:12 +0000";
layers = (
{
layerId = m01;
shapes = (
{
closed = 1;
nodes = (
(258,0,l),
(258,-148,l),
(350,-148,l),
(350,0,l),
(427,0,l),
(427,-148,l),
(519,-148,l),
(519,0,l),
(621,0,ls),
(678,0,o),
(722,39,o),
(722,94,cs),
(722,241,ls),
(722,274,o),
(688,303,o),
(665,320,c),
(685,334,o),
(719,358,o),
(719,391,cs),
(719,545,ls),
(719,599,o),
(672,641,o),
(616,641,cs),
(519,641,l),
(519,790,l),
(427,790,l),
(427,641,l),
(350,641,l),
(350,790,l),
(258,790,l),
(258,641,l),
(40,641,l),
(40,502,l),
(119,502,l),
(119,139,l),
(40,139,l),
(40,0,l)
);
},
{
closed = 1;
nodes = (
(288,502,l),
(549,502,l),
(549,393,l),
(288,393,l)
);
},
{
closed = 1;
nodes = (
(291,260,l),
(552,260,l),
(552,148,l),
(291,148,l)
);
}
);
width = 802;
}
);
metricRight = B;
unicode = 8383;
},
{
glyphname = cent;
lastChange = "2025-01-17 21:30:12 +0000";
layers = (
{
hints = (
{
horizontal = 1;
place = (0,21);
target = up;
type = BottomGhost;
},
{
horizontal = 1;
place = (123,147);
type = Stem;
},
{
horizontal = 1;
place = (401,144);
type = Stem;
},
{
horizontal = 1;
place = (644,-20);
target = down;
type = TopGhost;
},
{
place = (36,157);
type = Stem;
},
{
place = (172,114);
type = Stem;
}
);
layerId = m01;
shapes = (
{
closed = 1;
nodes = (
(423,270,l),
(267,270,l),
(267,250,l),
(193,250,l),
(193,419,l),
(267,419,l),
(267,401,l),
(423,401,l),
(423,469,ls),
(423,513,o),
(388,545,o),
(343,545,cs),
(286,545,l),
(286,644,l),
(172,644,l),
(172,545,l),
(116,545,ls),
(70,545,o),
(36,513,o),
(36,469,cs),
(36,200,ls),
(36,157,o),
(74,123,o),
(118,123,cs),
(172,123,l),
(172,0,l),
(286,0,l),
(286,123,l),
(343,123,ls),
(388,123,o),
(423,155,o),
(423,199,cs)
);
}
);
width = 461;
},
{
associatedMasterId = m01;
hints = (
{
horizontal = 1;
place = (0,21);
target = up;
type = BottomGhost;
},
{
horizontal = 1;
place = (123,147);
type = Stem;
},
{
horizontal = 1;
place = (401,144);
type = Stem;
},
{
horizontal = 1;
place = (644,-20);
target = down;
type = TopGhost;
},
{
place = (36,157);
type = Stem;
},
{
place = (172,114);
type = Stem;
}
);
layerId = m003;
name = Bold;
shapes = (
{
closed = 1;
nodes = (
(423,270,l),
(267,270,l),
(267,250,l),
(193,250,l),
(193,419,l),
(267,419,l),
(267,401,l),
(423,401,l),
(423,469,ls),
(423,513,o),
(388,545,o),
(343,545,cs),
(286,545,l),
(286,644,l),
(172,644,l),
(172,545,l),
(116,545,ls),
(70,545,o),
(36,513,o),
(36,469,cs),
(36,200,ls),
(36,157,o),
(74,123,o),
(118,123,cs),
(172,123,l),
(172,0,l),
(286,0,l),
(286,123,l),
(343,123,ls),
(388,123,o),
(423,155,o),
(423,199,cs)
);
}
);
width = 461;
}
);
unicode = 162;
},
{
glyphname = dollar;
lastChange = "2025-01-17 21:30:12 +0000";
layers = (
{
anchors = (
{
name = bottom;
pos = (399,0);
},
{
name = top;
pos = (396,640);
}
);
hints = (
{
horizontal = 1;
place = (-73,21);
target = up;
type = BottomGhost;
},
{
horizontal = 1;
place = (31,170);
type = Stem;
},
{
horizontal = 1;
place = (263,132);
type = Stem;
},
{
horizontal = 1;
place = (457,165);
type = Stem;
},
{
horizontal = 1;
place = (733,-20);
target = down;
type = TopGhost;
},
{
place = (42,158);
type = Stem;
},
{
place = (287,155);
type = Stem;
},
{
place = (172,143);
type = Stem;
}
);
layerId = m01;
shapes = (
{
closed = 1;
nodes = (
(720,302,ls),
(720,356,o),
(676,395,o),
(619,395,cs),
(250,395,l),
(250,497,l),
(700,497,l),
(700,640,l),
(530,640,l),
(530,790,l),
(438,790,l),
(438,640,l),
(361,640,l),
(361,790,l),
(269,790,l),
(269,640,l),
(184,640,ls),
(128,640,o),
(80,606,o),
(80,546,cs),
(80,336,ls),
(80,291,o),
(128,251,o),
(184,251,cs),
(552,251,l),
(552,142,l),
(100,142,l),
(100,0,l),
(269,0,l),
(269,-148,l),
(361,-148,l),
(361,0,l),
(438,0,l),
(438,-148,l),
(530,-148,l),
(530,0,l),
(616,0,ls),
(673,0,o),
(720,42,o),
(720,95,cs)
);
}
);
width = 800;
},
{
associatedMasterId = m01;
hints = (
{
horizontal = 1;
place = (-73,21);
target = up;
type = BottomGhost;
},
{
horizontal = 1;
place = (31,170);
type = Stem;
},
{
horizontal = 1;
place = (263,132);
type = Stem;
},
{
horizontal = 1;
place = (457,165);
type = Stem;
},
{
horizontal = 1;
place = (733,-20);
target = down;
type = TopGhost;
},
{
place = (42,158);
type = Stem;
},
{
place = (287,155);
type = Stem;
},
{
place = (172,143);
type = Stem;
}
);
layerId = m003;
name = Bold;
shapes = (
{
closed = 1;
nodes = (
(442,298,ls),
(442,354,o),
(398,395,o),
(341,395,cs),
(200,395,l),
(200,487,l),
(287,487,l),
(287,457,l),
(442,457,l),
(442,526,ls),
(442,581,o),
(398,622,o),
(341,622,cs),
(315,622,l),
(315,733,l),
(172,733,l),
(172,622,l),
(147,622,ls),
(90,622,o),
(42,587,o),
(42,526,cs),
(42,350,ls),
(42,305,o),
(90,263,o),
(147,263,cs),
(287,263,l),
(287,171,l),
(198,171,l),
(198,201,l),
(42,201,l),
(42,129,ls),
(42,74,o),
(90,31,o),
(147,31,cs),
(174,31,l),
(174,-73,l),
(315,-73,l),
(315,31,l),
(339,31,ls),
(395,31,o),
(442,74,o),
(442,129,cs)
);
}
);
width = 484;
}
);
metricRight = N;
unicode = 36;
},
{
glyphname = sterling;
lastChange = "2025-01-17 21:30:12 +0000";
layers = (
{
hints = (
{
horizontal = 1;
place = (0,136);
type = Stem;
},
{
horizontal = 1;
place = (267,108);
type = Stem;
},
{
horizontal = 1;
place = (527,126);
type = Stem;
},
{
place = (96,171);
type = Stem;
},
{
horizontal = 1;
place = (466,187);
type = Stem;
}
);
layerId = m01;
shapes = (
{
closed = 1;
nodes = (
(523,0,l),
(523,136,l),
(267,136,l),
(267,267,l),
(363,267,l),
(363,375,l),
(267,375,l),
(267,482,ls),
(267,511,o),
(275,527,o),
(302,527,cs),
(327,527,o),
(332,497,o),
(332,466,c),
(483,466,l),
(482,581,o),
(405,653,o),
(282,653,cs),
(162,653,o),
(97,566,o),
(96,458,cs),
(96,375,l),
(35,375,l),
(35,267,l),
(96,267,l),
(96,137,l),
(36,136,l),
(36,0,l)
);
}
);
width = 567;
},
{
associatedMasterId = m01;
hints = (
{
horizontal = 1;
place = (0,136);
type = Stem;
},
{
horizontal = 1;
place = (267,108);
type = Stem;
},
{
horizontal = 1;
place = (527,126);
type = Stem;
},
{
place = (96,171);
type = Stem;
},
{
horizontal = 1;
place = (466,187);
type = Stem;
}
);
layerId = m003;
name = Bold;
shapes = (
{
closed = 1;
nodes = (
(523,0,l),
(523,136,l),
(267,136,l),
(267,267,l),
(363,267,l),
(363,375,l),
(267,375,l),
(267,482,ls),
(267,511,o),
(275,527,o),
(302,527,cs),
(327,527,o),
(332,497,o),
(332,466,c),
(483,466,l),
(482,581,o),
(405,653,o),
(282,653,cs),
(162,653,o),
(97,566,o),
(96,458,cs),
(96,375,l),
(35,375,l),
(35,267,l),
(96,267,l),
(96,137,l),
(36,136,l),
(36,0,l)
);
}
);
width = 567;
}
);
unicode = 163;
},
{
glyphname = yen;
lastChange = "2025-01-17 21:30:12 +0000";
layers = (
{
hints = (
{
horizontal = 1;
place = (0,21);
target = up;
type = BottomGhost;
},
{
horizontal = 1;
place = (82,57);
type = Stem;
},
{
horizontal = 1;
place = (173,57);
type = Stem;
},
{
horizontal = 1;
place = (641,-20);
target = down;
type = TopGhost;
},
{
place = (167,153);
type = Stem;
},
{
place = (40,157);
type = Stem;
},
{
place = (292,159);
type = Stem;
}
);
layerId = m01;
shapes = (
{
closed = 1;
nodes = (
(383,173,l),
(383,230,l),
(320,230,l),
(320,271,l),
(354,271,ls),
(411,271,o),
(451,310,o),
(451,364,cs),
(451,641,l),
(292,641,l),
(292,421,l),
(197,421,l),
(197,641,l),
(40,641,l),
(40,364,ls),
(40,310,o),
(80,271,o),
(137,271,cs),
(167,271,l),
(167,230,l),
(107,230,l),
(107,173,l),
(167,173,l),
(167,139,l),
(107,139,l),
(107,82,l),
(167,82,l),
(167,0,l),
(320,0,l),
(320,82,l),
(383,82,l),
(383,139,l),
(320,139,l),
(320,173,l)
);
}
);
width = 496;
},
{
associatedMasterId = m01;
hints = (
{
horizontal = 1;
place = (0,21);
target = up;
type = BottomGhost;
},
{
horizontal = 1;
place = (82,57);
type = Stem;
},
{
horizontal = 1;
place = (173,57);
type = Stem;
},
{
horizontal = 1;
place = (641,-20);
target = down;
type = TopGhost;
},
{
place = (167,153);
type = Stem;
},
{
place = (40,157);
type = Stem;
},
{
place = (292,159);
type = Stem;
}
);
layerId = m003;
name = Bold;
shapes = (
{
closed = 1;
nodes = (
(383,173,l),
(383,230,l),
(320,230,l),
(320,271,l),
(354,271,ls),
(411,271,o),
(451,310,o),
(451,364,cs),
(451,641,l),
(292,641,l),
(292,421,l),
(197,421,l),
(197,641,l),
(40,641,l),
(40,364,ls),
(40,310,o),
(80,271,o),
(137,271,cs),
(167,271,l),
(167,230,l),
(107,230,l),
(107,173,l),
(167,173,l),
(167,139,l),
(107,139,l),
(107,82,l),
(167,82,l),
(167,0,l),
(320,0,l),
(320,82,l),
(383,82,l),
(383,139,l),
(320,139,l),
(320,173,l)
);
}
);
width = 496;
}
);
unicode = 165;
},
{
glyphname = plus;
lastChange = "2025-01-17 21:30:12 +0000";
layers = (
{
hints = (
{
horizontal = 1;
place = (105,21);
target = up;
type = BottomGhost;
},
{
horizontal = 1;
place = (249,120);
type = Stem;
},
{
horizontal = 1;
place = (512,-20);
target = down;
type = TopGhost;
},
{
place = (189,127);
type = Stem;
}
);
layerId = m01;
shapes = (
{
closed = 1;
nodes = (
(467,249,l),
(467,369,l),
(316,369,l),
(316,512,l),
(189,512,l),
(189,369,l),
(38,369,l),
(38,249,l),
(189,249,l),
(189,105,l),
(316,105,l),
(316,249,l)
);
}
);
width = 503;
},
{
associatedMasterId = m01;
hints = (
{
horizontal = 1;
place = (105,21);
target = up;
type = BottomGhost;
},
{
horizontal = 1;
place = (249,120);
type = Stem;
},
{
horizontal = 1;
place = (512,-20);
target = down;
type = TopGhost;
},
{
place = (189,127);
type = Stem;
}
);
layerId = m003;
name = Bold;
shapes = (
{
closed = 1;
nodes = (
(467,249,l),
(467,369,l),
(316,369,l),
(316,512,l),
(189,512,l),
(189,369,l),
(38,369,l),
(38,249,l),
(189,249,l),
(189,105,l),
(316,105,l),
(316,249,l)
);
}
);
width = 503;
}
);
unicode = 43;
},
{
glyphname = minus;
lastChange = "2025-01-17 21:30:12 +0000";
layers = (
{
hints = (
{
horizontal = 1;
place = (256,123);
type = Stem;
}
);
layerId = m01;
shapes = (
{
closed = 1;
nodes = (
(395,256,l),
(395,379,l),
(45,379,l),
(45,256,l)
);
}
);
width = 460;
},
{
associatedMasterId = m01;
hints = (
{
horizontal = 1;
place = (256,123);
type = Stem;
}
);
layerId = m003;
name = Bold;
shapes = (
{
closed = 1;
nodes = (
(395,256,l),
(395,379,l),
(45,379,l),
(45,256,l)
);
}
);
width = 460;
}
);
unicode = 8722;
},
{
glyphname = multiply;
lastChange = "2025-01-17 21:30:12 +0000";
layers = (
{
hints = (
{
horizontal = 1;
place = (111,21);
target = up;
type = BottomGhost;
},
{
horizontal = 1;
place = (526,-20);
target = down;
type = TopGhost;
}
);
layerId = m01;
shapes = (
{
closed = 1;
nodes = (
(365,111,l),
(455,200,l),
(336,319,l),
(454,437,l),
(365,526,l),
(246,408,l),
(128,526,l),
(39,438,l),
(158,319,l),
(39,200,l),
(128,111,l),
(246,229,l)
);
}
);
width = 513;
},
{
associatedMasterId = m01;
hints = (
{
horizontal = 1;
place = (111,21);
target = up;
type = BottomGhost;
},
{
horizontal = 1;
place = (526,-20);
target = down;
type = TopGhost;
}
);
layerId = m003;
name = Bold;
shapes = (
{
closed = 1;
nodes = (
(365,111,l),
(455,200,l),
(336,319,l),
(454,437,l),
(365,526,l),
(246,408,l),
(128,526,l),
(39,438,l),
(158,319,l),
(39,200,l),
(128,111,l),
(246,229,l)
);
}
);
width = 513;
}
);
unicode = 215;
},
{
glyphname = divide;
lastChange = "2025-01-17 21:30:12 +0000";
layers = (
{
hints = (
{
horizontal = 1;
place = (20,139);
type = Stem;
},
{
horizontal = 1;
place = (223,126);
type = Stem;
},
{
horizontal = 1;
place = (407,139);
type = Stem;
},
{
place = (174,140);
type = Stem;
}
);
layerId = m01;
shapes = (
{
closed = 1;
nodes = (
(425,223,l),
(425,349,l),
(50,349,l),
(50,223,l)
);
},
{
closed = 1;
nodes = (
(314,515,o),
(282,546,o),
(244,546,cs),
(206,546,o),
(174,515,o),
(174,476,cs),
(174,438,o),
(206,407,o),
(244,407,cs),
(282,407,o),
(314,438,o),
(314,477,cs)
);
},
{
closed = 1;
nodes = (
(314,128,o),
(282,159,o),
(244,159,cs),
(206,159,o),
(174,128,o),
(174,89,cs),
(174,51,o),
(206,20,o),
(244,20,cs),
(281,20,o),
(313,50,o),
(314,89,cs)
);
}
);
width = 472;
},
{
associatedMasterId = m01;
hints = (
{
horizontal = 1;
place = (20,139);
type = Stem;
},
{
horizontal = 1;
place = (223,126);
type = Stem;
},
{
horizontal = 1;
place = (407,139);
type = Stem;
},
{
place = (174,140);
type = Stem;
}
);
layerId = m003;
name = Bold;
shapes = (
{
closed = 1;
nodes = (
(425,223,l),
(425,349,l),
(50,349,l),
(50,223,l)
);
},
{
closed = 1;
nodes = (
(314,515,o),
(282,546,o),
(244,546,cs),
(206,546,o),
(174,515,o),
(174,476,cs),
(174,438,o),
(206,407,o),
(244,407,cs),
(282,407,o),
(314,438,o),
(314,477,cs)
);
},
{
closed = 1;
nodes = (
(314,128,o),
(282,159,o),
(244,159,cs),
(206,159,o),
(174,128,o),
(174,89,cs),
(174,51,o),
(206,20,o),
(244,20,cs),
(281,20,o),
(313,50,o),
(314,89,cs)
);
}
);
width = 472;
}
);
unicode = 247;
},
{
glyphname = equal;
lastChange = "2025-01-17 21:30:12 +0000";
layers = (
{
hints = (
{
horizontal = 1;
place = (139,118);
type = Stem;
},
{
horizontal = 1;
place = (360,118);
type = Stem;
}
);
layerId = m01;
shapes = (
{
closed = 1;
nodes = (
(526,452,l),
(-10,452,l),
(-10,360,l),
(526,360,l)
);
},
{
closed = 1;
nodes = (
(526,283,l),
(-10,283,l),
(-10,191,l),
(526,191,l)
);
}
);
width = 518;
},
{
associatedMasterId = m01;
hints = (
{
horizontal = 1;
place = (139,118);
type = Stem;
},
{
horizontal = 1;
place = (360,118);
type = Stem;
}
);
layerId = m003;
name = Bold;
shapes = (
{
closed = 1;
nodes = (
(468,360,l),
(468,478,l),
(42,478,l),
(42,360,l)
);
},
{
closed = 1;
nodes = (
(468,139,l),
(468,257,l),
(42,257,l),
(42,139,l)
);
}
);
width = 518;
}
);
unicode = 61;
},
{
glyphname = greater;
lastChange = "2025-01-17 21:30:12 +0000";
layers = (
{
hints = (
{
horizontal = 1;
place = (65,21);
target = up;
type = BottomGhost;
},
{
horizontal = 1;
place = (526,-20);
target = down;
type = TopGhost;
}
);
layerId = m01;
shapes = (
{
closed = 1;
nodes = (
(431,351,l),
(42,526,l),
(42,394,l),
(291,292,l),
(42,197,l),
(42,65,l),
(431,233,l)
);
}
);
width = 472;
},
{
associatedMasterId = m01;
hints = (
{
horizontal = 1;
place = (65,21);
target = up;
type = BottomGhost;
},
{
horizontal = 1;
place = (526,-20);
target = down;
type = TopGhost;
}
);
layerId = m003;
name = Bold;
shapes = (
{
closed = 1;
nodes = (
(431,351,l),
(42,526,l),
(42,394,l),
(291,292,l),
(42,197,l),
(42,65,l),
(431,233,l)
);
}
);
width = 472;
}
);
unicode = 62;
},
